<?xml version="1.0" encoding="UTF-8" standalone="no"?>
<!-- Created with Inkscape (http://www.inkscape.org/) -->

<svg
   xmlns:dc="http://purl.org/dc/elements/1.1/"
   xmlns:cc="http://creativecommons.org/ns#"
   xmlns:rdf="http://www.w3.org/1999/02/22-rdf-syntax-ns#"
   xmlns:svg="http://www.w3.org/2000/svg"
   xmlns="http://www.w3.org/2000/svg"
   xmlns:sodipodi="http://sodipodi.sourceforge.net/DTD/sodipodi-0.dtd"
   xmlns:inkscape="http://www.inkscape.org/namespaces/inkscape"
   version="1.1"
   id="svg10"
   xml:space="preserve"
   width="2583.5044"
   height="2395.272"
   viewBox="0 0 2583.5044 2395.272"
   sodipodi:docname="Logo WIEArg_Clasico.svg"
   inkscape:version="0.92.4 (5da689c313, 2019-01-14)"><metadata
     id="metadata16"><rdf:RDF><cc:Work
         rdf:about=""><dc:format>image/svg+xml</dc:format><dc:type
           rdf:resource="http://purl.org/dc/dcmitype/StillImage" /><dc:title></dc:title></cc:Work></rdf:RDF></metadata><defs
     id="defs14"><clipPath
       clipPathUnits="userSpaceOnUse"
       id="clipPath28"><path
         d="M 0,5385.827 H 2551.181 V 0 H 0 Z"
         id="path26"
         inkscape:connector-curvature="0" /></clipPath><clipPath
       clipPathUnits="userSpaceOnUse"
       id="clipPath36"><path
         d="M -84.8445,1178.3 H 2622.22 V -181.959 H -84.8445 Z"
         id="path34"
         inkscape:connector-curvature="0" /></clipPath><clipPath
       clipPathUnits="userSpaceOnUse"
       id="clipPath1126"><path
         d="m 1418.41,1078 h 207.04 V 870.958 h -207.04 z"
         id="path1124"
         inkscape:connector-curvature="0" /></clipPath><clipPath
       clipPathUnits="userSpaceOnUse"
       id="clipPath1162"><path
         d="m 1183.98,1078 h 207.03 V 870.958 h -207.03 z"
         id="path1160"
         inkscape:connector-curvature="0" /></clipPath><clipPath
       clipPathUnits="userSpaceOnUse"
       id="clipPath1186"><path
         d="M 949.006,1078 H 1156.04 V 870.958 H 949.006 Z"
         id="path1184"
         inkscape:connector-curvature="0" /></clipPath><clipPath
       clipPathUnits="userSpaceOnUse"
       id="clipPath1474"><path
         d="m -118.531,1721.09 h 982.36 v -478.24 h -982.36 z"
         id="path1472"
         inkscape:connector-curvature="0" /></clipPath><clipPath
       clipPathUnits="userSpaceOnUse"
       id="clipPath1574"><path
         d="m 1684.98,1721.09 h 982.36 v -478.24 h -982.36 z"
         id="path1572"
         inkscape:connector-curvature="0" /></clipPath><clipPath
       clipPathUnits="userSpaceOnUse"
       id="clipPath6212"><rect
         style="fill:none;stroke:none;stroke-width:0.75;stroke-opacity:1"
         id="rect6214"
         width="1937.6283"
         height="1796.454"
         x="307.05585"
         y="-5184.6558"
         transform="scale(1,-1)" /></clipPath></defs><sodipodi:namedview
     pagecolor="#ffffff"
     bordercolor="#666666"
     borderopacity="1"
     objecttolerance="10"
     gridtolerance="10"
     guidetolerance="10"
     inkscape:pageopacity="0"
     inkscape:pageshadow="2"
     inkscape:window-width="1920"
     inkscape:window-height="986"
     id="namedview12"
     showgrid="false"
     inkscape:zoom="0.21250206"
     inkscape:cx="651.12492"
     inkscape:cy="655.05328"
     inkscape:window-x="-11"
     inkscape:window-y="-11"
     inkscape:window-maximized="1"
     inkscape:current-layer="g18"
     fit-margin-top="0"
     fit-margin-left="0"
     fit-margin-right="0"
     fit-margin-bottom="0"
     inkscape:lockguides="true" /><g
     id="g18"
     inkscape:groupmode="layer"
     inkscape:label="wie_banners_2"
     transform="matrix(1.3333333,0,0,-1.3333333,-207.0568,6988.1676)"><g
       id="g22"
       transform="translate(-149.48964,49.169016)"><g
         transform="translate(1779.9181,4099.7358)"
         id="g44"
         style="fill:#6d248c;fill-opacity:1"><path
           inkscape:connector-curvature="0"
           id="path46"
           style="fill:#6d248c;fill-opacity:1;fill-rule:nonzero;stroke:none"
           d="m 0,0 v -271.241 c 0,-68.891 0,-73.284 49.836,-79.169 v -21.225 h -164.201 v 21.971 c 49.867,5.853 49.867,10.993 49.867,79.163 v 156.897 c -2.212,38.838 7.077,35.167 -41.075,19.845" /></g><g
         transform="translate(2114.1702,3957.5356)"
         id="g48"
         style="fill:#6d248c;fill-opacity:1"><path
           inkscape:connector-curvature="0"
           id="path50"
           style="fill:#6d248c;fill-opacity:1;fill-rule:nonzero;stroke:none"
           d="m 0,0 c 4.398,50.562 -17.588,112.884 -81.37,112.884 -62.301,0 -87.986,-63.053 -89.437,-112.884 z m -174.459,-27.871 c 0,-71.854 21.25,-178.122 112.888,-178.122 49.102,0 91.613,27.115 120.199,66.699 l 12.469,-11.713 c -30.772,-50.603 -82.09,-86.499 -142.2,-86.499 -102.631,0 -177.396,83.557 -177.396,183.986 0,93.835 65.243,190.581 167.859,190.581 91.639,0 154.67,-78.438 154.67,-164.932 z" /></g><g
         transform="translate(1775.5878,4427.3677)"
         id="g52"
         style="fill:#6d248c;fill-opacity:1"><path
           inkscape:connector-curvature="0"
           id="path54"
           style="fill:#6d248c;fill-opacity:1;fill-rule:nonzero;stroke:none"
           d="m 0,0 c 14.14,38.417 0,62.679 -26.279,62.679 -30.349,0 -60.661,-44.478 -72.797,-72.783 -22.237,-46.514 -42.46,-113.249 -54.577,-157.735 C -115.26,-131.437 -26.279,-66.724 0,0 m -903.872,18.201 c -86.942,-68.742 -151.647,-173.917 -161.753,-256.821 -8.088,-68.735 14.138,-125.355 86.944,-129.4 76.822,-4.045 157.716,62.687 214.324,123.345 44.483,48.522 84.914,121.322 88.959,163.801 2.036,20.218 0,36.393 -10.103,52.569 -4.041,8.08 -8.096,10.109 -6.093,14.154 2.052,4.047 10.144,0 16.196,-6.074 6.088,-6.055 26.285,-30.316 22.24,-76.825 -2.015,-54.614 -38.436,-119.317 -82.891,-169.868 -52.58,-56.622 -155.685,-125.364 -246.667,-119.296 -90.997,6.065 -135.483,64.699 -125.379,151.64 10.1,80.884 78.859,186.046 186.04,266.93 97.04,72.783 218.373,123.337 323.508,123.337 115.294,0 244.717,-44.486 224.48,-212.311 -12.13,-123.361 -228.524,-394.306 -361.982,-527.748 v -2.026 c 64.713,44.499 131.421,95.037 230.498,167.837 84.982,60.636 186.097,135.452 250.774,186 24.272,68.752 52.586,141.567 88.992,200.202 48.515,76.844 101.076,115.256 143.545,115.256 36.38,0 62.678,-32.352 46.506,-80.881 -26.276,-82.896 -129.387,-153.686 -184,-206.256 -30.34,-125.362 -68.764,-295.218 -133.435,-382.158 v -2.032 c 68.722,66.735 242.609,212.31 363.934,321.506 194.119,175.93 264.887,307.354 277.023,378.125 4.056,28.311 2.02,54.603 -12.136,68.751 -14.136,12.127 -28.324,8.086 -26.285,14.155 2.007,4.039 14.156,6.061 20.208,6.061 58.651,0 86.946,-46.507 82.898,-99.069 -10.092,-82.904 -97.057,-210.296 -321.481,-394.308 -159.747,-131.429 -317.451,-262.859 -448.868,-388.22 -12.149,-12.132 -32.366,-30.33 -56.612,-30.33 -20.237,0 -20.237,18.198 -8.101,34.372 68.759,93.015 111.203,293.193 157.708,408.444 v 2.019 c -38.421,-32.347 -161.747,-125.364 -260.89,-198.155 -84.914,-60.655 -264.863,-192.1 -339.677,-240.612 -12.134,-8.1 -28.323,-20.224 -42.469,-20.224 -24.274,0 -30.331,16.172 -12.137,38.406 76.854,80.89 167.844,181.989 256.804,307.354 88.952,125.367 167.867,260.845 184.039,363.972 16.194,105.141 -40.479,153.673 -123.38,153.673 -101.091,0 -216.367,-54.593 -301.281,-119.295" /></g><g
         transform="translate(1776.2045,4148.9219)"
         id="g56"
         style="fill:#6d248c;fill-opacity:1"><path
           inkscape:connector-curvature="0"
           id="path58"
           style="fill:#6d248c;fill-opacity:1;fill-rule:nonzero;stroke:none"
           d="m 0,0 c 0,-20.078 -16.302,-36.379 -36.39,-36.379 -20.114,0 -36.415,16.301 -36.415,36.379 0,20.145 16.301,36.426 36.415,36.426 C -16.302,36.426 0,20.145 0,0" /></g><g
         transform="translate(350.7868,3912.9282)"
         id="g60"
         style="fill:#6d248c;fill-opacity:1"><path
           inkscape:connector-curvature="0"
           id="path62"
           style="fill:#6d248c;fill-opacity:1;fill-rule:nonzero;stroke:none"
           d="m 0,0 c 3.411,-19.589 5.246,-21.43 9.894,-21.749 4.418,-0.546 13.665,-0.522 41.982,1.579 l 48.404,3.614 c 14.518,1.077 26.591,2.406 34.767,3.688 6.021,0.884 6.853,2.712 7.338,6.059 0.324,2.219 0.511,9.514 0.852,11.516 0.367,1.568 0.543,2.459 1.267,2.526 1.692,0.126 6.146,-0.878 6.903,-1.254 0.842,-17.788 1.265,-26.792 2.114,-34.884 0.716,-9.644 2.273,-20.771 2.564,-21.401 0.1,-1.316 -0.782,-2.493 -1.741,-2.774 -2.369,-0.851 -4.51,-1.439 -5.977,-1.335 -1.648,15.531 -3.219,20.264 -9.816,20.655 -3.891,-0.08 -12.439,0.388 -39.546,-1.624 L 41.159,-39.685 C 9.458,-42.056 7.059,-42.458 5.914,-50.037 5.851,-52.451 5.612,-55.783 5.825,-61.942 c 0.069,-0.864 -0.623,-1.362 -1.354,-1.419 -0.723,-0.056 -1.712,0.099 -3.709,0.822 -1.753,0.761 -2.257,0.941 -2.548,1.578 -0.374,1.741 -0.472,3.047 -0.675,5.682 -0.187,2.619 -0.502,10.101 -1.345,21.493 -1.098,11.375 -2.448,26.253 -2.614,28.453 -0.211,2.851 0.016,3.081 0.726,3.36 z" /></g><g
         transform="translate(416.4744,3991.136)"
         id="g64"
         style="fill:#6d248c;fill-opacity:1"><path
           inkscape:connector-curvature="0"
           id="path66"
           style="fill:#6d248c;fill-opacity:1;fill-rule:nonzero;stroke:none"
           d="m 0,0 c 0.151,9.894 0.024,17.365 -0.382,22.861 -0.766,13.201 -1.723,14.314 -15.99,17.394 -0.716,0.888 -1.123,5.954 -0.869,7.046 7.038,-0.544 18.174,-2.035 25.696,-2.163 8.252,0.108 15.057,0.668 22.099,1.208 0.465,-1.763 0.683,-3.52 0.657,-5.059 0.227,-1.106 -0.504,-1.537 -1.487,-1.954 -2.676,-0.839 -6.584,-1.877 -9.5,-2.5 C 13.651,35.617 11.426,33.012 10.566,24.243 10.009,19.399 9.893,12.157 9.724,0.946 c -0.165,-10.979 0.037,-13.18 0.266,-14.5 0.227,-0.884 0.457,-1.554 1.418,-2.227 1.448,-0.674 9.925,-2.123 29.818,-2.429 17.714,-0.269 24.27,-0.384 28.181,1.764 4.663,3.014 5.987,10.677 6.264,28.706 0.396,25.708 -2.087,38.036 -27.704,45.245 -0.229,0.88 0.043,3.083 0.32,5.283 0.499,0.643 0.744,0.641 1.95,0.629 C 61.398,62.8 76.876,59.052 83.865,56.076 85.306,54.97 85.781,54.302 85.763,53.201 85.741,51.669 85.714,50.127 85.36,42.878 85.016,36.29 84.54,20.903 84.267,2.674 c -0.269,-17.583 0.432,-34.951 0.892,-52.55 -0.251,-0.428 -5.343,-0.579 -7.287,-0.318 -0.482,0.002 -0.963,0.67 -0.962,0.884 -1.783,10.139 -3.467,11.046 -7.105,11.314 -3.628,0.496 -19.144,1.838 -43.893,2.223 l -41.982,0.639 c -32.272,0.488 -42.969,-0.669 -44.434,-0.869 -1.456,-0.196 -2.671,-0.621 -3.197,-2.796 -0.999,-2.196 -1.792,-6.357 -3.327,-11.609 -0.242,-0.211 -0.242,-0.211 -0.974,-0.208 l -5.575,0.524 c -0.973,0.022 -1.214,0.011 -1.193,1.126 l 0.118,7.681 c 0.102,6.818 0.711,15.159 1.159,28.557 l 0.33,21.317 c 0.204,13.411 -0.766,29.473 -0.844,40.457 0.047,2.86 0.548,4.169 1.295,5.251 1.485,1.958 1.485,1.958 5.84,1.008 10.646,-1.916 24.72,-2.35 31.038,-2.453 -0.095,-5.71 -0.831,-6.574 -2.293,-6.774 -17.524,-2.807 -26.28,-4.206 -26.541,-21.354 L -64.896,9.562 c -0.202,-12.971 0.169,-20.22 0.863,-22.647 0.933,-2.882 3.349,-3.349 8.925,-3.438 16.988,-0.269 33.976,-0.297 50.966,-0.331 2.187,-0.034 3.909,1.254 3.929,2.802 z" /></g><g
         transform="translate(425.8855,4129.4961)"
         id="g68"
         style="fill:#6d248c;fill-opacity:1"><path
           inkscape:connector-curvature="0"
           id="path70"
           style="fill:#6d248c;fill-opacity:1;fill-rule:nonzero;stroke:none"
           d="M 0,0 C 1.262,9.801 1.98,17.25 2.206,22.765 2.93,35.96 2.11,37.167 -11.726,41.85 c -0.612,0.952 -0.444,6.031 -0.066,7.092 6.925,-1.338 17.835,-4.07 25.29,-5.035 8.214,-0.844 15.038,-1.061 22.103,-1.31 0.252,-1.806 0.271,-3.569 0.071,-5.105 0.105,-1.109 -0.678,-1.465 -1.697,-1.788 C 31.218,35.198 27.229,34.587 24.252,34.309 17.582,33.845 15.084,31.514 13.228,22.886 12.131,18.162 11.204,10.967 9.773,-0.156 8.355,-11.055 8.323,-13.264 8.393,-14.594 c 0.123,-0.905 0.281,-1.601 1.159,-2.382 1.367,-0.835 9.617,-3.234 29.351,-5.775 17.569,-2.272 24.073,-3.111 28.2,-1.436 4.969,2.48 7.158,9.936 9.466,27.818 3.289,25.495 2.222,38.052 -22.414,48.096 -0.133,0.901 0.39,3.052 0.917,5.204 0.564,0.586 0.804,0.549 2.008,0.401 11.012,-1.87 25.972,-7.346 32.577,-11.081 1.307,-1.268 1.702,-2 1.561,-3.073 C 91.023,41.648 90.832,40.116 89.655,32.953 88.572,26.445 86.363,11.222 84.023,-6.858 81.77,-24.3 80.516,-41.64 78.984,-59.173 c -0.3,-0.407 -5.38,0.022 -7.276,0.503 -0.487,0.047 -0.882,0.773 -0.85,0.991 -0.637,10.269 -2.205,11.358 -5.79,12.045 -3.555,0.902 -18.813,3.98 -43.365,7.139 l -41.636,5.383 c -32.013,4.14 -42.774,4.205 -44.243,4.175 -1.475,-0.044 -2.74,-0.312 -3.492,-2.447 -1.249,-2.04 -2.511,-6.089 -4.627,-11.141 -0.269,-0.172 -0.269,-0.172 -0.987,-0.074 l -5.484,1.137 c -0.967,0.12 -1.206,0.159 -1.059,1.253 l 0.985,7.617 c 0.871,6.762 2.419,14.973 4.381,28.254 l 2.727,21.138 c 1.718,13.303 2.568,29.371 3.741,40.279 0.361,2.834 1.013,4.084 1.875,5.077 1.693,1.784 1.693,1.784 5.918,0.352 10.366,-3.124 24.296,-5.141 30.552,-5.947 -0.731,-5.665 -1.568,-6.444 -3.036,-6.464 -17.73,-0.806 -26.589,-1.229 -28.785,-18.245 l -1.938,-15.02 c -1.667,-12.857 -2.114,-20.114 -1.699,-22.609 0.603,-2.951 2.946,-3.698 8.481,-4.413 16.847,-2.182 33.724,-4.139 50.609,-6.1 2.157,-0.272 4.012,0.81 4.213,2.33 z" /></g><g
         transform="translate(450.9994,4265.9141)"
         id="g72"
         style="fill:#6d248c;fill-opacity:1"><path
           inkscape:connector-curvature="0"
           id="path74"
           style="fill:#6d248c;fill-opacity:1;fill-rule:nonzero;stroke:none"
           d="m 0,0 c 2.388,9.6 3.96,16.908 4.812,22.358 2.241,13.034 1.56,14.33 -11.64,20.556 -0.497,1.034 0.257,6.054 0.755,7.065 6.722,-2.124 17.24,-6.104 24.539,-7.916 8.062,-1.777 14.813,-2.776 21.802,-3.84 0.053,-1.817 -0.145,-3.589 -0.517,-5.081 -0.023,-1.12 -0.843,-1.371 -1.885,-1.558 C 35.063,31.37 31.031,31.236 28.041,31.304 21.366,31.601 18.607,29.568 15.784,21.217 14.142,16.644 12.392,9.6 9.686,-1.274 7.04,-11.94 6.74,-14.126 6.659,-15.462 c 0.028,-0.914 0.103,-1.611 0.883,-2.486 1.25,-0.99 9.175,-4.327 28.492,-9.13 17.193,-4.276 23.545,-5.859 27.846,-4.656 5.216,1.882 8.252,9.043 12.599,26.527 6.206,24.957 6.593,37.545 -16.73,50.362 -0.021,0.911 0.742,2.982 1.507,5.059 0.635,0.527 0.87,0.465 2.048,0.173 10.725,-3.124 24.948,-10.279 31.087,-14.751 1.146,-1.424 1.461,-2.177 1.196,-3.242 -0.37,-1.489 -0.742,-2.987 -2.731,-9.968 C 91.025,16.084 87.081,1.221 82.682,-16.486 78.436,-33.544 75.19,-50.645 71.653,-67.872 c -0.343,-0.372 -5.351,0.627 -7.174,1.322 -0.473,0.118 -0.782,0.871 -0.734,1.09 0.562,10.276 -0.879,11.541 -4.358,12.63 -3.422,1.295 -18.231,6.124 -42.254,12.115 l -40.744,10.132 c -31.324,7.786 -42.004,9.091 -43.465,9.22 -1.464,0.143 -2.754,0.013 -3.756,-1.998 -1.467,-1.901 -3.185,-5.787 -5.871,-10.537 -0.285,-0.167 -0.285,-0.167 -0.992,0.013 l -5.312,1.777 c -0.945,0.234 -1.181,0.294 -0.914,1.356 l 1.86,7.465 c 1.638,6.618 4.133,14.596 7.603,27.543 l 5.142,20.687 c 3.233,13.012 5.933,28.875 8.35,39.596 0.686,2.769 1.479,3.93 2.448,4.828 1.885,1.568 1.885,1.568 5.915,-0.336 9.94,-4.29 23.548,-7.904 29.671,-9.431 -1.381,-5.538 -2.297,-6.217 -3.765,-6.08 -17.707,1.241 -26.546,1.85 -30.687,-14.78 L -61.045,24.025 C -64.176,11.436 -65.458,4.29 -65.328,1.76 c 0.25,-3 2.503,-4.01 7.915,-5.361 16.491,-4.097 33.024,-7.99 49.558,-11.874 2.125,-0.533 4.093,0.336 4.465,1.834 z" /></g><g
         transform="translate(557.8301,4427.3643)"
         id="g76"
         style="fill:#6d248c;fill-opacity:1"><path
           inkscape:connector-curvature="0"
           id="path78"
           style="fill:#6d248c;fill-opacity:1;fill-rule:nonzero;stroke:none"
           d="m 0,0 c -19.788,2.057 -53.927,6.22 -105.745,10.669 -16.879,1.378 -18.162,1.508 -24.155,-8.041 -0.792,-1.075 -1.113,-1.169 -1.981,-0.74 -0.441,0.21 -2.606,2.973 -3.188,3.995 -0.584,1.02 -0.635,2.022 0.041,3.398 1.83,3.758 6.496,12.241 8.519,16.386 3.36,6.922 6.291,14.04 9.759,21.154 0.478,0.992 3.916,0.293 6.317,-0.869 0.876,-0.43 1.435,-0.938 1.164,-2.039 -2.967,-8.33 -3.666,-11.416 -0.632,-12.398 1.624,-0.54 5.286,-1.356 8.818,-1.844 37.269,-4.945 88.675,-9.687 109.376,-10.972 1.28,-0.137 2.394,1.032 1.49,1.953 -11.386,12.638 -45.293,47.235 -58.187,60.124 -1.574,1.732 -3.299,2.088 -5.332,2.342 -13.074,1.964 -21.743,3.013 -27.102,3.665 -5.883,0.656 -7.111,-0.202 -11.753,-9.196 -0.292,-0.582 -1.335,-1.063 -1.98,-0.739 -4.299,2.824 -5.25,4.752 -4.581,6.126 2.317,4.751 6.121,11.463 9.678,18.767 4.812,9.877 6.941,15.926 8.386,18.898 1.333,1.056 7.703,-0.83 7.561,-2.222 -3.79,-11.108 -3.712,-12.607 3.046,-13.709 26.932,-4.556 82.36,-11.001 114.636,-14.019 1.067,-0.023 1.235,0.878 0.213,2.105 -15.18,15.938 -65.868,68.73 -82.779,81.122 -4.073,2.72 -6.031,1.476 -7.403,-0.789 -1.878,-2.758 -3.711,-6.506 -5.487,-9.065 -0.416,-0.292 -0.953,-0.275 -1.944,0.454 -3.954,2.413 -5.293,3.559 -4.511,5.134 0.955,1.964 7.38,13.513 9.694,18.262 3.079,6.309 5.813,13.043 6.581,14.625 1.154,2.368 2.074,3.147 3.482,2.709 l 5.092,-1.743 c 0.432,-0.219 0.681,-0.821 0.487,-1.214 -5.224,-10.177 -3.89,-11.313 14.282,-31.641 10.739,-12.328 47.242,-49.893 75.19,-78.406 3.156,-3.49 9.988,-12.202 15.935,-18.266 1.242,-1.352 1.439,-3.149 0.865,-4.339 -1.155,-2.371 -3.162,-2.619 -6.696,-2.123 -4.509,0.742 -10.732,1.81 -22.624,3.448 C 30.7,73.059 -5.186,78.059 -34.582,80.881 -19.375,64.433 -2.465,45.936 19.777,22.882 25.388,17.222 32.851,8.696 38.675,2.922 39.569,2.004 39.822,1.393 39.748,0.698 39.92,-0.613 39.467,-2.104 38.789,-3.479 38.309,-4.469 37.269,-4.943 35.334,-4.488 31.58,-3.88 19.787,-2.047 0,0" /></g><g
         transform="translate(599.0281,4619.939)"
         id="g80"
         style="fill:#6d248c;fill-opacity:1"><path
           inkscape:connector-curvature="0"
           id="path82"
           style="fill:#6d248c;fill-opacity:1;fill-rule:nonzero;stroke:none"
           d="m 0,0 c -2.049,-3.125 -2.837,-7.858 -1.484,-12.434 2.222,-8.561 9.214,-16.044 22.399,-24.698 12.986,-8.526 24.84,-9.47 32.691,-8.576 11.612,1.33 17.655,6.558 20.666,11.153 1.572,2.383 3.329,7.274 2.261,11.396 -1.608,6.838 -6.38,15.484 -18.752,23.605 C 45.4,8.581 30.249,13.793 17.472,11.14 11.529,10.055 4.099,6.247 0.118,0.194 Z m -2.277,13.327 c 8.442,12.865 35.699,25.201 63.492,6.944 20.697,-13.578 23.728,-32.396 23.67,-36.024 0.164,-11.689 -2.06,-22.58 -7.24,-30.481 -4.468,-6.791 -18.213,-18.013 -33.14,-18.201 -11.53,-0.313 -23.937,4.671 -31.041,9.331 -8.315,5.459 -16.118,14.79 -19.516,23.327 -2.862,7.143 -3.698,12.942 -3.484,19.911 0.446,8.636 3.517,19.495 7.134,25.014 z" /></g><g
         transform="translate(771.6227,4701.0791)"
         id="g84"
         style="fill:#6d248c;fill-opacity:1"><path
           inkscape:connector-curvature="0"
           id="path86"
           style="fill:#6d248c;fill-opacity:1;fill-rule:nonzero;stroke:none"
           d="m 0,0 c -14.871,-17.054 -21.226,-24.35 -26.093,-31.768 -0.438,-0.495 -0.438,-0.495 -0.976,-0.014 -0.37,0.317 -2.566,2.233 -3.337,3.201 -0.364,0.309 -0.953,1.119 -0.845,1.616 3.625,8.206 3.463,9.519 1.051,11.902 -4.363,4.982 -13.804,14.086 -32.274,30.193 -7.68,6.709 -10.668,8.447 -14.679,9.015 -4.438,0.072 -10.284,-1.82 -14.912,-7.115 -3.32,-3.813 -5.889,-11.189 -6.559,-20.813 -0.096,-1.955 0.421,-3.578 1.93,-5.186 3.328,-3.186 14.163,-12.931 22.747,-20.429 20.302,-17.699 21.328,-18.014 28.596,-11.513 1.195,0.992 1.704,0.836 2.251,0.361 0.554,-0.482 4.102,-4.162 3.96,-4.333 -1.304,-1.475 -9.355,-11.073 -12.096,-14.225 -3.179,-3.648 -8.952,-11.74 -10.603,-14.374 -0.62,-0.341 -3.875,2.206 -5.736,4.124 0.644,1.481 1.858,5.083 2.172,6.563 0.609,1.798 0.31,2.948 -1.556,4.857 -1.908,2.246 -7.14,7.686 -21.774,20.45 -13.528,11.802 -17.841,14.979 -20.178,16.73 -3.219,2.222 -3.836,1.884 -7.456,-0.788 -2.539,-2.166 -3.514,-2.195 -4.359,-2.029 -0.649,-0.026 -3.787,1.56 -3.866,2.205 0.566,14.667 1.206,23.152 1.8,26.421 0.238,2.119 0.49,2.775 1.5,3.939 0.869,1.002 1.663,1.173 2.948,0.056 l 13.391,-11.976 c 0.903,6.218 1.829,20.564 3.815,28.742 0.681,2.625 2.008,5.25 3.592,7.08 7.803,8.947 17.443,9.286 28.986,7.377 2.279,14.06 3.073,19.78 5.003,25.676 1.171,3.94 2.819,8.038 6.142,11.844 2.455,2.814 7.82,6.012 13.346,6.436 5.053,0.268 11.638,0.068 28.715,-13.957 9.478,-7.971 18.072,-15.467 25.57,-22.012 6.948,-6.062 9.286,-7.813 10.635,-8.111 2.696,-0.606 5.122,1.076 12.47,6.914 0.432,0.505 1.092,0.511 1.815,-0.128 0.736,-0.65 3.852,-4.813 3.418,-5.31 L 28.737,30.353 C 23.102,23.891 19.172,18.289 16.359,14.315 c -0.432,-0.496 -0.898,-0.669 -1.416,-0.504 -0.689,0.307 -3.18,1.886 -3.911,2.532 -0.36,0.324 -0.73,0.638 -0.481,1.292 0.86,2.46 1.311,5.565 -0.598,7.812 -6.298,7.53 -19.469,19.023 -23.493,22.53 -15.363,13.397 -22.434,16.368 -27.751,16.923 -5.536,1.039 -9.522,-1.323 -14.291,-6.782 -4.04,-4.65 -6.319,-11.69 -7.448,-18.877 -0.235,-2.12 0.169,-2.767 2.181,-4.525 10.458,-9.413 34.932,-30.477 42.272,-35.705 3.03,-2.065 3.502,-1.894 12.012,5.271 0.429,0.495 1.269,0.353 2.182,-0.443 z" /></g><g
         transform="translate(814.227,4837.8184)"
         id="g88"
         style="fill:#6d248c;fill-opacity:1"><path
           inkscape:connector-curvature="0"
           id="path90"
           style="fill:#6d248c;fill-opacity:1;fill-rule:nonzero;stroke:none"
           d="m 0,0 c -4.481,5.113 -18.121,8.003 -25.059,1.922 -0.989,-0.866 -2.17,-2.858 -2.531,-5.445 -1.598,-7.846 3.586,-19.436 10.634,-26.807 5.688,8.839 12.015,16.964 17.687,25.48 0.842,1.389 1.193,2.654 -0.576,4.67 z m -25.339,13.931 c 5.118,4.487 13.782,6.269 19.465,5.443 5.533,-0.652 11.207,-2.452 17.17,-6.254 1.167,1.664 3.503,5.332 4.647,5.037 0.81,0.065 1.295,-0.478 1.77,-1.359 0.94,-2.08 2.656,-6.381 1.502,-8.049 -8.689,-12.765 -26.021,-36.003 -31.049,-44.603 -0.668,-0.914 -0.21,-2.107 1.717,-4.295 16.327,-17.636 31.636,-17.456 42.549,-7.897 7.612,6.653 11.015,15.765 11.846,26.17 0.185,1.46 2.174,3.189 2.485,2.504 3.674,-4.53 4.46,-6.09 4.428,-8.062 -1.362,-12.8 -5.932,-23.25 -9.946,-29.992 -1.511,-2.624 -3.507,-4.687 -5.331,-6.287 -11.557,-10.133 -25.724,-8.973 -29.948,-8.153 -5.359,0.787 -17.186,4.616 -27.584,16.48 -14.071,16.076 -16.348,35.687 -13.496,50.446 1.252,6.911 4.977,14.664 9.6,18.719 z" /></g><g
         transform="translate(884.0504,4813.4189)"
         id="g92"
         style="fill:#6d248c;fill-opacity:1"><path
           inkscape:connector-curvature="0"
           id="path94"
           style="fill:#6d248c;fill-opacity:1;fill-rule:nonzero;stroke:none"
           d="m 0,0 c 4.052,6.086 5.24,8.995 2.029,14.741 -3.276,6.599 -11.118,18.587 -17.936,28.334 -5.427,7.752 -10.786,14.655 -13.469,18.11 -1.393,1.982 -2.676,2.277 -12.492,-1.318 -1.402,0.485 -1.496,-0.162 -2.996,3.527 -0.419,0.587 -0.149,1.372 0.645,2.528 4.832,9.582 9.419,19.903 9.765,21.327 0.255,0.777 0.846,1.478 1.569,1.979 0.891,0.634 2.209,0.666 2.762,-0.126 2.548,-3.259 5.371,-6.915 7.739,-10.298 0.687,-0.992 1.43,-1.669 2.15,-1.166 4.44,10.524 6.403,14.253 9.59,20.033 1.765,3.607 4.896,7.578 8.143,9.843 5.219,3.647 9.793,4.771 15.3,4.183 7.473,-0.692 15.003,-6.093 21.693,-14.155 3.288,-3.918 6.619,-8.686 12.605,-17.24 10.144,-14.519 16.301,-22.953 19.513,-27.524 1.245,-1.785 1.554,-1.858 2.094,-1.493 1.624,1.142 6.438,5.384 8.999,7.473 0.538,0.383 1.451,-0.166 2.294,-1.356 0.829,-1.188 2.24,-4.355 2.604,-5.277 C 82.947,50.87 82.584,50.63 81.867,50.119 65.835,38.925 60.985,34.353 54.147,29.557 53.055,28.8 52.159,28.174 51.43,28.843 L 47.742,32.2 c 3.835,5.635 4.698,8.609 1.533,14.682 C 45.998,53.474 41.037,60.963 31.166,75.089 23.515,86.029 19.437,91.478 11.821,93.542 6.577,94.908 1.508,93.73 -3.722,90.085 -8.049,87.064 -12.945,79.487 -15.097,74.129 c -0.654,-2.534 0.004,-3.847 1.356,-6.15 4.504,-7.229 24.398,-35.657 31.902,-46.4 1.807,-2.591 2.442,-2.736 12.919,2.227 1.227,0.55 1.68,0.28 2.06,-0.636 L 35.114,18.031 19.808,7.328 C 12.602,2.291 7.54,-2.733 3.935,-5.247 3.575,-5.501 3.112,-5.234 2.561,-4.442 Z" /></g><g
         transform="translate(997.7632,4968.9365)"
         id="g96"
         style="fill:#6d248c;fill-opacity:1"><path
           inkscape:connector-curvature="0"
           id="path98"
           style="fill:#6d248c;fill-opacity:1;fill-rule:nonzero;stroke:none"
           d="m 0,0 c -0.74,0.983 -2.237,1.047 -12.341,-1.838 -0.894,-0.166 -1.312,0.17 -1.266,1.543 -0.577,4.599 -0.595,5.132 0.27,5.844 6.255,6.656 11.512,13.353 18.526,20.922 0.285,0.411 0.487,0.515 0.882,0.705 0.398,0.198 0.6,-0.231 1.263,-1.531 6.598,-15.158 20.913,-46.256 26.565,-57.543 5.528,-11.061 7.481,-14.974 8.981,-17.479 1.913,-2.837 2.951,-3.954 4.808,-2.749 5.881,3.482 7.448,4.267 8.043,4.555 0.589,0.294 2.42,-0.409 2.559,-1.168 l 2.221,-5.933 c 0.46,-1.402 0.064,-1.607 -0.921,-2.085 -5.693,-2.853 -11.419,-5.171 -17.707,-8.318 -8.652,-4.321 -15.865,-9.563 -16.452,-9.842 -0.985,-0.502 -1.493,-0.472 -2.118,0.293 -1.158,1.311 -2.241,3.488 -2.89,4.789 -0.428,0.868 -0.144,1.292 0.454,1.571 6.63,4.413 7.882,5.851 6.023,12.514 -1.15,3.782 -7.566,19.557 -14.79,33.033 z m -22.025,72.55 c 5.111,2.562 10.839,-0.546 13.443,-5.758 3.692,-7.381 1.147,-14.078 -3.959,-16.628 -4.723,-2.36 -10.711,-0.207 -13.644,5.656 -3.802,7.6 -0.361,14.482 3.963,16.638 z" /></g><g
         transform="translate(1069.6792,4925.3945)"
         id="g100"
         style="fill:#6d248c;fill-opacity:1"><path
           inkscape:connector-curvature="0"
           id="path102"
           style="fill:#6d248c;fill-opacity:1;fill-rule:nonzero;stroke:none"
           d="M 0,0 C 5.389,4.947 7.238,7.474 5.495,13.832 3.888,21.005 -0.86,34.534 -5.15,45.617 c -3.409,8.832 -6.971,16.831 -8.748,20.817 -0.873,2.266 -2.052,2.854 -12.442,1.702 -1.261,0.818 -1.484,0.199 -2.073,4.14 -0.258,0.682 0.178,1.366 1.232,2.304 6.985,8.16 13.902,17.078 14.57,18.38 0.443,0.687 1.178,1.233 2.002,1.546 1.021,0.399 2.303,0.111 2.666,-0.791 1.683,-3.772 3.556,-7.993 5.033,-11.834 0.443,-1.136 1.004,-1.971 1.815,-1.645 6.839,9.131 9.622,12.3 14.105,17.147 2.58,3.087 6.566,6.194 10.257,7.628 5.945,2.284 10.647,2.281 15.856,0.4 7.09,-2.472 13.104,-9.516 17.684,-18.93 2.258,-4.593 4.345,-10.026 8.111,-19.766 6.389,-16.519 10.353,-26.177 12.359,-31.386 0.801,-2.032 1.078,-2.185 1.712,-1.947 1.834,0.719 7.51,3.693 10.506,5.108 0.614,0.244 1.373,-0.5 1.893,-1.863 0.534,-1.355 1.148,-4.768 1.284,-5.756 0.034,-1.294 -0.381,-1.449 -1.195,-1.775 C 73.234,22.055 67.427,18.77 59.635,15.765 58.402,15.29 57.39,14.891 56.83,15.717 l -2.775,4.137 c 5.068,4.555 6.628,7.242 5.001,13.886 C 57.443,40.941 54.418,49.387 48.21,65.46 43.399,77.91 40.73,84.173 33.833,88.007 29.069,90.594 23.865,90.655 17.914,88.366 12.996,86.454 6.427,80.283 3.057,75.599 1.825,73.297 2.146,71.854 2.907,69.287 5.554,61.208 18.071,28.837 22.785,16.62 c 1.148,-2.955 1.734,-3.237 13.087,-0.939 1.315,0.25 1.705,-0.118 1.841,-1.1 L 38.41,9.123 20.976,2.384 C 12.786,-0.791 6.664,-4.449 2.562,-6.037 2.161,-6.201 1.772,-5.82 1.427,-4.918 Z" /></g><g
         transform="translate(1260.4316,5065.5688)"
         id="g104"
         style="fill:#6d248c;fill-opacity:1"><path
           inkscape:connector-curvature="0"
           id="path106"
           style="fill:#6d248c;fill-opacity:1;fill-rule:nonzero;stroke:none"
           d="m 0,0 c 9.733,1.765 17.086,3.318 22.421,4.774 12.802,3.293 13.717,4.438 13.981,19.036 0.734,0.87 5.629,2.258 6.745,2.212 0.825,-7.005 1.506,-18.234 2.846,-25.63 1.671,-8.092 3.517,-14.663 5.421,-21.467 -1.645,-0.783 -3.334,-1.343 -4.852,-1.616 -1.031,-0.422 -1.597,0.216 -2.194,1.086 -1.353,2.473 -3.125,6.099 -4.277,8.844 -2.46,6.222 -5.444,7.901 -14.219,7.06 -4.848,-0.381 -12.022,-1.666 -23.074,-3.657 -10.821,-1.937 -12.936,-2.575 -14.185,-3.058 -0.826,-0.385 -1.439,-0.736 -1.901,-1.82 -0.395,-1.542 -0.19,-10.136 3.335,-29.718 3.145,-17.433 4.3,-23.888 7.15,-27.314 3.845,-3.991 11.633,-3.82 29.43,-0.626 25.296,4.551 36.942,9.358 39.09,35.897 0.83,0.383 3.023,0.541 5.227,0.691 0.734,-0.365 0.778,-0.608 0.996,-1.798 1.553,-11.068 0.836,-26.973 -0.721,-34.405 -0.829,-1.626 -1.386,-2.222 -2.47,-2.415 -1.515,-0.279 -3.03,-0.549 -10.212,-1.598 -6.527,-0.933 -21.71,-3.414 -39.673,-6.643 -17.349,-3.122 -34.261,-7.162 -51.436,-10.993 -0.481,0.164 -1.601,5.137 -1.724,7.095 -0.089,0.472 0.475,1.071 0.691,1.102 9.605,3.702 10.169,5.538 9.747,9.16 -0.218,3.653 -1.886,19.145 -6.279,43.498 l -7.442,41.321 c -5.715,31.757 -8.907,42.034 -9.388,43.438 -0.473,1.394 -1.114,2.506 -3.366,2.598 -2.344,0.564 -6.57,0.533 -12.02,1.042 -0.262,0.197 -0.262,0.197 -0.396,0.914 l -0.556,5.574 c -0.162,0.955 -0.207,1.191 0.876,1.377 l 7.561,1.369 c 6.699,1.215 15.01,2.213 28.253,4.347 l 20.981,3.785 c 13.19,2.383 28.816,6.41 39.587,8.605 2.806,0.498 4.204,0.255 5.408,-0.267 2.197,-1.078 2.197,-1.078 2.113,-5.538 0.165,-10.83 2.443,-24.703 3.566,-30.923 -5.633,-1.015 -6.622,-0.453 -7.099,0.95 -6.126,16.652 -9.192,24.973 -26.077,21.936 L -3.091,65.531 C -15.854,63.23 -22.909,61.466 -25.16,60.33 c -2.637,-1.469 -2.645,-3.935 -1.645,-9.429 3.002,-16.718 6.228,-33.394 9.458,-50.079 0.382,-2.141 1.987,-3.584 3.498,-3.302 z" /></g><g
         transform="translate(1352.864,5000.1914)"
         id="g108"
         style="fill:#6d248c;fill-opacity:1"><path
           inkscape:connector-curvature="0"
           id="path110"
           style="fill:#6d248c;fill-opacity:1;fill-rule:nonzero;stroke:none"
           d="m 0,0 c 6.695,2.954 9.25,4.762 9.638,11.338 0.798,7.318 0.634,21.641 0.147,33.525 -0.38,9.453 -1.202,18.158 -1.601,22.524 -0.093,2.424 -1.019,3.355 -11.225,5.594 -0.93,1.177 -1.355,0.675 -0.635,4.586 -0.027,0.745 0.613,1.248 1.919,1.793 9.221,5.49 18.638,11.711 19.697,12.713 0.647,0.507 1.504,0.799 2.389,0.826 1.102,0.05 2.22,-0.636 2.257,-1.596 0.397,-4.114 0.81,-8.714 0.97,-12.836 0.055,-1.205 0.316,-2.175 1.201,-2.135 9.41,6.467 13.059,8.562 18.862,11.708 3.436,2.09 8.196,3.746 12.164,3.909 6.36,0.27 10.827,-1.246 15.146,-4.713 5.905,-4.607 9.341,-13.214 10.657,-23.608 0.651,-5.071 0.905,-10.886 1.333,-21.314 0.731,-17.707 1.388,-28.125 1.608,-33.698 0.099,-2.177 0.333,-2.419 0.986,-2.39 1.98,0.084 8.31,1.08 11.605,1.453 0.648,0.036 1.135,-0.922 1.195,-2.373 0.066,-1.456 -0.459,-4.883 -0.635,-5.849 -0.4,-1.241 -0.84,-1.252 -1.715,-1.292 C 76.426,-2.652 69.88,-3.896 61.529,-4.241 60.208,-4.292 59.12,-4.342 58.866,-3.378 l -1.302,4.801 c 6.266,2.69 8.595,4.727 9.198,11.559 0.804,7.318 0.63,16.294 -0.07,33.516 C 66.139,59.836 65.628,66.609 60.32,72.465 56.641,76.444 51.723,78.18 45.363,77.911 40.098,77.693 31.895,73.954 27.195,70.607 25.279,68.821 25.125,67.362 25.014,64.678 24.926,56.187 26.37,21.504 26.911,8.404 27.054,5.261 27.516,4.784 39,3.323 40.342,3.141 40.572,2.651 40.392,1.678 L 39.297,-3.712 20.635,-4.487 C 11.854,-4.843 4.874,-6.353 0.487,-6.531 c -0.443,-0.02 -0.681,0.455 -0.725,1.42 z" /></g><g
         transform="translate(1524.7198,5046.166)"
         id="g112"
         style="fill:#6d248c;fill-opacity:1"><path
           inkscape:connector-curvature="0"
           id="path114"
           style="fill:#6d248c;fill-opacity:1;fill-rule:nonzero;stroke:none"
           d="m 0,0 c 0.575,7.741 -0.446,18.039 -3.684,24.841 -2.657,5.798 -8.78,12.562 -18.637,13.289 -3.942,0.291 -7.581,-1.153 -11.57,-4.499 -4.187,-3.101 -6.465,-10.002 -6.957,-16.769 -0.695,-9.445 2.152,-21.819 7.861,-28.071 6.719,-7.546 11.654,-9.373 15.592,-9.656 8.117,-0.608 16.196,4.406 17.39,20.613 z m -27.466,-104.332 c 12.707,-0.931 21.729,1.819 28.07,7.193 4.693,3.805 8.339,8.397 8.748,14.204 0.253,3.382 0.297,7.034 -3.814,10.985 -4.534,4.23 -10.796,6.141 -18.465,6.71 -7.668,0.562 -16.942,0.27 -22.517,-0.539 -2.223,-0.326 -4.973,-1.831 -8.757,-5.203 -6.086,-4.913 -8.732,-11.038 -9.003,-14.676 -0.313,-4.347 3.599,-17.05 25.513,-18.655 z m 15.529,151.921 c 5.704,-0.419 12.281,-3.811 16.075,-6.282 1.431,-1.328 3.216,-1.204 3.648,-1.243 3.73,-0.271 16.642,1.702 21.259,1.363 1.747,-0.129 4.001,-2.484 4.153,-3.466 0.163,-0.744 0.399,-6.597 0.324,-7.569 -0.108,-1.444 -1.312,-2.83 -3.965,-2.869 -2.405,0.173 -8.992,0.414 -18.626,1.363 2.863,-6.052 4.884,-14.715 4.375,-21.494 -1.24,-16.936 -13.513,-31.134 -30.935,-37.393 -8.36,-2.794 -13.604,-5.322 -18.642,-7.885 -1.379,-0.633 -2.157,-2.281 -2.222,-2.999 -0.305,-4.361 4.8,-6.918 10.712,-7.349 2.63,-0.198 16.479,-0.725 18.44,-0.868 9.217,-0.676 17.45,-2.5 24.465,-9.093 3.09,-2.903 5.489,-9.158 4.896,-17.389 -0.575,-7.749 -2.845,-11.726 -9.352,-19.266 -12.497,-14.178 -22.874,-17.553 -28.531,-19.572 -5.188,-1.567 -15.395,-2.52 -21.748,-2.066 -23.899,1.762 -32.395,15.034 -31.688,24.716 0.609,8.228 4.166,14.783 9.72,18.272 5.792,3.948 10.421,7.018 17.36,11.372 -9.095,5.3 -14.114,8.827 -13.59,16.083 0.161,2.188 0.23,3.15 1.694,4.982 2.34,2.021 12.616,6.873 21.953,11.045 -6.653,2.444 -11.937,5.505 -17.026,11.226 -5.698,6.503 -8.468,16.685 -7.783,26.121 1.06,14.524 8.894,25.146 19.329,32.164 7.621,4.798 16.28,8.788 25.491,8.11 z" /></g><g
         transform="translate(1607.4789,5135.4141)"
         id="g116"
         style="fill:#6d248c;fill-opacity:1"><path
           inkscape:connector-curvature="0"
           id="path118"
           style="fill:#6d248c;fill-opacity:1;fill-rule:nonzero;stroke:none"
           d="m 0,0 c 5.643,-0.899 8.5,-6.758 7.581,-12.505 -1.284,-8.148 -7.255,-12.113 -12.898,-11.221 -5.21,0.834 -8.833,6.08 -7.806,12.54 1.325,8.397 8.128,11.986 12.915,11.22 z m -24.299,-71.825 c -0.039,1.232 -1.218,2.162 -11.116,5.699 -0.828,0.375 -0.971,0.888 -0.131,1.99 2.203,4.073 2.493,4.511 3.623,4.585 8.944,1.765 17.125,4.159 27.24,6.243 0.47,0.158 0.684,0.134 1.135,0.058 0.423,-0.064 0.345,-0.544 0.123,-1.985 -3.463,-16.159 -9.915,-49.783 -11.893,-62.241 -1.934,-12.229 -2.625,-16.545 -2.86,-19.454 -0.098,-3.427 0.111,-4.936 2.306,-5.03 6.81,-0.601 8.546,-0.869 9.201,-0.976 0.655,-0.1 1.716,-1.736 1.391,-2.429 l -1.642,-6.127 c -0.436,-1.402 -0.873,-1.341 -1.971,-1.16 -6.281,0.993 -12.282,2.438 -19.235,3.532 -9.553,1.53 -18.46,1.472 -19.108,1.566 -1.089,0.174 -1.473,0.49 -1.545,1.475 -0.173,1.756 0.209,4.143 0.444,5.575 0.143,0.962 0.622,1.143 1.28,1.033 7.956,-0.28 9.813,0.166 12.172,6.672 1.261,3.729 5.229,20.3 7.198,35.459 z" /></g><g
         transform="translate(1616.0955,4986.354)"
         id="g120"
         style="fill:#6d248c;fill-opacity:1"><path
           inkscape:connector-curvature="0"
           id="path122"
           style="fill:#6d248c;fill-opacity:1;fill-rule:nonzero;stroke:none"
           d="m 0,0 c 7.265,0.908 10.224,1.902 12.484,8.087 2.863,6.783 6.808,20.573 9.735,32.097 2.341,9.166 4.066,17.739 4.918,22.024 0.6,2.364 -0.017,3.518 -9.161,8.594 -0.55,1.396 -1.103,1.026 0.716,4.576 0.168,0.71 0.931,1.01 2.335,1.153 10.412,2.613 21.221,5.89 22.514,6.556 0.763,0.308 1.683,0.323 2.522,0.115 1.067,-0.277 1.951,-1.247 1.724,-2.19 -0.813,-4.053 -1.735,-8.574 -2.739,-12.585 -0.298,-1.163 -0.335,-2.161 0.525,-2.383 10.865,3.499 14.949,4.466 21.427,5.83 3.885,1.013 8.93,1.236 12.766,0.263 6.173,-1.562 10.019,-4.298 13.177,-8.858 4.339,-6.102 5.165,-15.326 3.458,-25.661 -0.838,-5.043 -2.279,-10.692 -4.84,-20.807 -4.362,-17.168 -6.717,-27.338 -8.082,-32.752 -0.547,-2.121 -0.394,-2.402 0.254,-2.567 1.916,-0.491 8.271,-1.344 11.518,-1.926 0.648,-0.166 0.833,-1.219 0.47,-2.63 -0.356,-1.401 -1.834,-4.541 -2.284,-5.426 -0.725,-1.07 -1.144,-0.955 -2.001,-0.734 -18.962,4.8 -25.592,5.489 -33.682,7.542 -1.286,0.332 -2.348,0.6 -2.32,1.597 l 0.134,4.971 c 6.77,0.785 9.6,2.066 12.118,8.436 2.856,6.783 5.281,15.434 9.512,32.149 3.301,12.927 4.76,19.567 1.348,26.686 -2.389,4.877 -6.599,7.942 -12.784,9.518 C 60.658,62.974 51.728,61.731 46.264,59.864 43.94,58.697 43.351,57.347 42.489,54.81 39.964,46.684 31.436,13.05 28.209,0.344 27.43,-2.711 27.73,-3.291 38.334,-7.982 c 1.216,-0.559 1.306,-1.081 0.86,-1.967 l -2.587,-4.858 -18.119,4.604 c -8.519,2.16 -15.63,2.714 -19.888,3.804 -0.424,0.097 -0.521,0.618 -0.274,1.569 z" /></g><g
         transform="translate(1795.5059,4999.2837)"
         id="g124"
         style="fill:#6d248c;fill-opacity:1"><path
           inkscape:connector-curvature="0"
           id="path126"
           style="fill:#6d248c;fill-opacity:1;fill-rule:nonzero;stroke:none"
           d="m 0,0 c 2.351,6.384 -1.628,19.743 -10.277,22.946 -1.247,0.45 -3.555,0.532 -5.998,-0.374 -7.659,-2.357 -15.364,-12.446 -18.474,-22.156 10.483,-0.768 20.639,-2.45 30.842,-3.365 1.607,-0.087 2.897,0.223 3.813,2.729 z m 0.125,28.93 c 6.39,-2.359 12.096,-9.122 14.092,-14.514 2.072,-5.164 3.198,-11.003 2.705,-18.067 2.024,-0.218 6.364,-0.535 6.639,-1.679 0.448,-0.68 0.193,-1.37 -0.347,-2.196 -1.374,-1.817 -4.33,-5.391 -6.351,-5.158 -15.356,1.537 -44.054,5.656 -54.018,5.961 -1.118,0.158 -1.95,-0.825 -2.959,-3.568 -7.699,-22.756 -0.218,-36.135 13.389,-41.158 9.489,-3.497 19.114,-2.135 28.641,2.105 1.39,0.531 3.852,-0.374 3.4,-0.987 -2.223,-5.388 -3.225,-6.823 -4.967,-7.739 -11.891,-4.925 -23.26,-5.904 -31.114,-5.591 -3.008,0.074 -5.777,0.835 -8.046,1.672 -14.428,5.333 -20.18,18.32 -21.481,22.423 -1.868,5.088 -4.157,17.305 1.316,32.101 7.388,20.046 23.525,31.403 37.863,35.958 6.666,2.195 15.273,2.643 21.032,0.507 z" /></g><g
         transform="translate(1881.7666,4961.2573)"
         id="g128"
         style="fill:#6d248c;fill-opacity:1"><path
           inkscape:connector-curvature="0"
           id="path130"
           style="fill:#6d248c;fill-opacity:1;fill-rule:nonzero;stroke:none"
           d="m 0,0 c 2.922,6.135 0.184,19.801 -8.166,23.763 -1.183,0.56 -3.488,0.862 -5.997,0.175 -7.848,-1.648 -16.43,-11.003 -20.408,-20.394 10.379,-1.718 20.35,-4.306 30.428,-6.147 1.59,-0.208 2.892,-0.033 4.05,2.374 z M 2.746,28.789 C 8.898,25.861 13.966,18.617 15.468,13.076 17.065,7.733 17.654,1.814 16.538,-5.171 18.514,-5.58 22.807,-6.273 23,-7.435 c 0.382,-0.719 0.063,-1.384 -0.545,-2.17 -1.538,-1.681 -4.799,-4.98 -6.799,-4.558 -15.165,2.91 -43.366,9.609 -53.265,10.812 -1.095,0.256 -2.014,-0.66 -3.258,-3.289 -9.722,-21.983 -3.484,-35.96 9.624,-42.196 9.124,-4.339 18.839,-3.854 28.716,-0.479 1.416,0.404 3.798,-0.731 3.29,-1.296 -2.709,-5.167 -3.832,-6.51 -5.639,-7.258 -12.287,-3.838 -23.707,-3.785 -31.492,-2.768 -3.001,0.348 -5.684,1.353 -7.876,2.396 -13.896,6.615 -18.448,20.053 -19.363,24.258 -1.411,5.231 -2.578,17.618 4.197,31.866 9.181,19.287 26.292,29.159 40.951,32.383 6.844,1.59 15.451,1.267 21.01,-1.371 z" /></g><g
         transform="translate(1890.6438,4886.8574)"
         id="g132"
         style="fill:#6d248c;fill-opacity:1"><path
           inkscape:connector-curvature="0"
           id="path134"
           style="fill:#6d248c;fill-opacity:1;fill-rule:nonzero;stroke:none"
           d="m 0,0 c 5.351,-0.86 6.535,-1.003 8.508,1.509 1.837,2.293 5.13,7.963 15.748,26.216 l 10.98,18.874 c 2.933,5.032 3.289,6.515 -2.792,13.143 -1.158,1.508 -0.511,4.788 0.6,5.822 10.266,1.051 20.735,1.137 29.201,2.115 1.002,-0.026 2.379,-0.259 2.76,-0.49 0.764,-0.435 0.856,-2.46 -0.626,-4.133 -3.358,-5.347 -6.736,-9.831 -10.206,-16.238 5.014,-0.111 22.587,3.424 26.157,3.885 2.56,0.47 5.502,0.725 7.218,-0.267 4.94,-2.88 7.391,-11.32 4.71,-15.937 C 90.3,31.13 82.017,27.814 79.334,27.127 c -1.626,-0.168 -3.07,-0.458 -4.198,0.208 -1.146,0.661 -1.471,1.405 -1.622,2.902 -0.182,3.185 -1.377,7.255 -4.422,9.022 -4.175,2.44 -11.502,1.637 -16.865,0.276 C 50.158,39.042 48.188,36.54 42.464,26.68 L 27.21,0.458 c -3.053,-5.246 -4.441,-8.091 -4.478,-9.472 -0.045,-1.374 0.347,-2.44 2.558,-3.451 l 10.495,-5.542 c 0.956,-0.555 1.11,-2.042 0.429,-2.768 l -4.918,-5.856 c -8.358,4.869 -16.719,9.74 -25.083,14.592 -4.932,2.875 -9.93,5.211 -11.263,5.98 -0.774,0.449 -0.772,1.294 0.533,2.227 z" /></g><g
         transform="translate(2054.1392,4955.6646)"
         id="g136"
         style="fill:#6d248c;fill-opacity:1"><path
           inkscape:connector-curvature="0"
           id="path138"
           style="fill:#6d248c;fill-opacity:1;fill-rule:nonzero;stroke:none"
           d="m 0,0 c 4.757,-3.188 4.886,-9.712 1.642,-14.547 -4.601,-6.847 -11.68,-7.951 -16.42,-4.764 -4.391,2.929 -5.477,9.208 -1.82,14.653 4.721,7.057 12.399,7.463 16.426,4.773 z m -52.207,-55.006 c 0.492,1.134 -0.192,2.475 -7.693,9.837 -0.595,0.687 -0.508,1.211 0.719,1.852 3.709,2.777 4.16,3.057 5.212,2.642 8.872,-2.154 17.288,-3.408 27.352,-5.765 0.486,-0.042 0.685,-0.163 1.053,-0.408 0.365,-0.248 0.093,-0.652 -0.736,-1.86 -9.907,-13.214 -29.873,-41.03 -36.9,-51.513 -6.895,-10.289 -9.328,-13.909 -10.749,-16.453 -1.535,-3.061 -1.973,-4.51 -0.019,-5.535 5.926,-3.394 7.385,-4.374 7.935,-4.746 0.547,-0.357 0.842,-2.311 0.244,-2.792 l -4.067,-4.867 c -0.984,-1.09 -1.352,-0.848 -2.267,-0.239 -5.29,3.552 -10.129,7.384 -15.972,11.293 -8.041,5.387 -16.142,9.07 -16.698,9.428 -0.906,0.623 -1.136,1.067 -0.782,2.002 0.582,1.652 1.935,3.663 2.736,4.877 0.547,0.811 1.05,0.764 1.59,0.388 7.113,-3.598 8.987,-3.968 13.859,0.941 2.708,2.856 13.27,16.252 21.412,29.19 z" /></g><g
         transform="translate(1999.3185,4816.7295)"
         id="g140"
         style="fill:#6d248c;fill-opacity:1"><path
           inkscape:connector-curvature="0"
           id="path142"
           style="fill:#6d248c;fill-opacity:1;fill-rule:nonzero;stroke:none"
           d="m 0,0 c 7.007,-2.152 10.125,-2.451 14.719,2.273 5.377,5.011 14.624,15.964 22.013,25.265 5.885,7.427 10.978,14.534 13.513,18.095 1.511,1.905 1.432,3.2 -4.835,11.592 0.069,1.49 -0.58,1.384 2.531,3.878 0.448,0.569 1.26,0.534 2.6,0.105 10.569,-1.882 21.756,-3.333 23.231,-3.266 0.811,-0.02 1.658,-0.379 2.336,-0.934 0.865,-0.675 1.278,-1.927 0.669,-2.692 C 74.4,50.95 71.692,47.207 69.128,43.971 68.374,43.02 67.952,42.117 68.633,41.58 c 11.342,-1.263 15.476,-2.057 21.933,-3.469 3.971,-0.656 8.655,-2.531 11.761,-4.984 4.978,-3.963 7.381,-8.029 8.385,-13.474 1.455,-7.36 -1.565,-16.114 -7.368,-24.831 -2.82,-4.26 -6.444,-8.829 -12.932,-17.007 -11.007,-13.872 -17.325,-22.184 -20.794,-26.56 -1.356,-1.709 -1.342,-2.026 -0.829,-2.443 1.566,-1.23 7.009,-4.624 9.731,-6.479 0.526,-0.408 0.269,-1.44 -0.649,-2.581 -0.905,-1.145 -3.528,-3.396 -4.293,-4.015 -1.106,-0.68 -1.452,-0.406 -2.137,0.135 -15.325,12.16 -21.099,15.495 -27.634,20.689 -1.034,0.818 -1.895,1.496 -1.466,2.396 l 2.16,4.489 c 6.506,-2.06 9.597,-2.041 14.525,2.74 5.37,5.014 11.123,11.901 21.843,25.41 8.295,10.456 12.338,15.92 12.153,23.808 -0.177,5.425 -2.763,9.944 -7.752,13.908 -4.14,3.278 -12.799,5.809 -18.534,6.331 -2.597,-0.097 -3.689,-1.094 -5.507,-3.055 -5.626,-6.366 -27.205,-33.563 -35.355,-43.823 -1.958,-2.479 -1.916,-3.127 5.816,-11.756 0.893,-1.006 0.763,-1.525 -0.016,-2.138 L 27.322,-28.5 12.689,-16.89 c -6.884,5.464 -13.142,8.886 -16.581,11.619 -0.353,0.281 -0.223,0.799 0.387,1.543 z" /></g><g
         transform="translate(2159.4316,4741.0415)"
         id="g144"
         style="fill:#6d248c;fill-opacity:1"><path
           inkscape:connector-curvature="0"
           id="path146"
           style="fill:#6d248c;fill-opacity:1;fill-rule:nonzero;stroke:none"
           d="m 0,0 c 5.391,5.601 11.194,14.163 13.043,21.471 1.65,6.162 1.266,15.276 -5.862,22.133 -2.845,2.739 -6.555,3.951 -11.779,3.93 -5.199,0.285 -11.346,-3.565 -16.058,-8.467 -6.563,-6.82 -12.287,-18.156 -11.885,-26.62 0.342,-10.094 2.983,-14.651 5.825,-17.388 5.866,-5.636 15.282,-6.955 26.554,4.755 z m -87.783,-62.725 c 9.198,-8.823 17.884,-12.473 26.2,-12.397 6.022,-0.075 11.769,1.148 15.803,5.34 2.36,2.455 4.721,5.23 4.083,10.9 -0.799,6.146 -4.379,11.617 -9.92,16.951 -5.541,5.329 -12.873,11.022 -17.675,13.968 -1.91,1.164 -5,1.782 -10.046,1.589 -7.818,0.105 -13.79,-2.904 -16.305,-5.531 -3.038,-3.158 -8.129,-15.425 7.71,-30.663 z M 21.221,44.242 c 4.118,-3.952 7.02,-10.791 8.346,-15.093 0.268,-1.946 1.709,-2.985 2.02,-3.291 2.695,-2.591 13.885,-9.32 17.233,-12.536 1.255,-1.216 1.486,-4.453 0.968,-5.315 C 49.448,7.341 45.892,2.68 45.21,1.983 44.191,0.927 42.394,0.644 40.324,2.296 38.591,3.958 33.666,8.373 26.874,15.244 25.205,8.769 21.218,0.808 16.509,-4.09 4.73,-16.326 -13.774,-19.392 -31.19,-13.091 c -8.214,3.182 -13.874,4.593 -19.373,5.851 -1.462,0.382 -3.114,-0.385 -3.62,-0.908 -3.032,-3.148 -0.747,-8.378 3.535,-12.486 1.904,-1.828 12.218,-11.083 13.635,-12.455 6.646,-6.404 11.834,-13.066 13.015,-22.613 0.525,-4.209 -1.624,-10.562 -7.342,-16.516 -5.388,-5.597 -9.677,-7.186 -19.505,-8.853 -18.675,-2.922 -28.819,1.117 -34.451,3.179 -4.984,2.101 -13.447,7.885 -18.046,12.298 -17.258,16.612 -15.325,32.261 -8.593,39.254 5.728,5.938 12.648,8.716 19.137,7.849 6.992,-0.659 12.518,-1.251 20.63,-2.326 -3.61,9.874 -5.237,15.804 -0.176,21.046 1.512,1.58 2.187,2.284 4.479,2.761 3.103,0.048 14.099,-2.782 23.951,-5.533 -3.557,6.129 -5.661,11.855 -5.93,19.513 -0.222,8.639 4.139,18.256 10.699,25.072 10.093,10.491 22.897,13.667 35.42,12.393 8.93,-1.175 18.142,-3.638 24.789,-10.033 z" /></g><path
         inkscape:connector-curvature="0"
         id="path1204"
         style="fill:#72a9df;fill-opacity:1;fill-rule:nonzero;stroke:none"
         d="M 502.584,3575.007 H 741.349 V 3425.779 H 502.584 Z" /><path
         inkscape:connector-curvature="0"
         id="path1206"
         style="fill:#ffffff;fill-opacity:1;fill-rule:nonzero;stroke:none"
         d="m 502.584,3525.263 h 238.765 v -49.744 H 502.584 Z" /><g
         transform="translate(622.7042,3493.5835)"
         id="g1208"><path
           inkscape:connector-curvature="0"
           id="path1210"
           style="fill:#f5ac1a;fill-opacity:1;fill-rule:nonzero;stroke:#7b2d19;stroke-width:0.25;stroke-linecap:butt;stroke-linejoin:miter;stroke-miterlimit:4;stroke-dasharray:none;stroke-opacity:1"
           d="m 0,0 c -0.104,-2.813 1.628,-4.362 1.4,-6.874 -0.225,-2.514 1.155,-3.933 1.476,-4.91 0.319,-0.978 -0.346,-1.561 -0.059,-1.701 0.287,-0.14 0.915,0.632 0.711,2.022 -0.205,1.388 -1.26,1.803 -1.012,4.87 0.248,3.071 -1.256,3.784 -0.89,6.585 m -3.309,6.426 8.494,-18.503 c 0,0 0.144,-0.354 0.382,-0.256 0.234,0.1 0.089,0.451 0.089,0.451 L 0.203,7.199" /></g><g
         transform="translate(620.0425,3493.8186)"
         id="g1212"><path
           inkscape:connector-curvature="0"
           id="path1214"
           style="fill:#f5ac1a;fill-opacity:1;fill-rule:nonzero;stroke:#7b2d19;stroke-width:0.25;stroke-linecap:butt;stroke-linejoin:miter;stroke-miterlimit:4;stroke-dasharray:none;stroke-opacity:1"
           d="m 0,0 c -1.173,-2.559 -0.167,-4.652 -1.337,-6.886 -1.169,-2.236 -0.439,-4.077 -0.517,-5.101 -0.077,-1.027 -0.916,-1.311 -0.705,-1.549 0.211,-0.238 1.088,0.234 1.431,1.596 0.341,1.361 -0.474,2.146 0.929,4.888 1.404,2.739 0.288,3.975 1.697,6.422 M 0.9,6.573 1.667,-13.77 c 0,0 0,-0.382 0.254,-0.382 0.256,0 0.256,0.382 0.256,0.382 L 2.943,6.573" /></g><g
         transform="translate(617.6727,3495.0552)"
         id="g1216"><path
           inkscape:connector-curvature="0"
           id="path1218"
           style="fill:#f5ac1a;fill-opacity:1;fill-rule:nonzero;stroke:#7b2d19;stroke-width:0.25;stroke-linecap:butt;stroke-linejoin:miter;stroke-miterlimit:4;stroke-dasharray:none;stroke-opacity:1"
           d="m 0,0 c -2.063,-1.917 -1.933,-4.234 -3.87,-5.852 -1.937,-1.617 -1.965,-3.597 -2.431,-4.515 -0.463,-0.917 -1.347,-0.858 -1.243,-1.161 0.105,-0.301 1.095,-0.199 1.932,0.927 0.838,1.128 0.385,2.166 2.73,4.16 2.345,1.994 1.786,3.563 4.026,5.285 M 3.347,5.727 -3.73,-13.359 c 0,0 -0.146,-0.356 0.09,-0.452 0.236,-0.099 0.382,0.257 0.382,0.257 L 5.233,4.947" /></g><g
         transform="translate(615.9578,3497.1035)"
         id="g1220"><path
           inkscape:connector-curvature="0"
           id="path1222"
           style="fill:#f5ac1a;fill-opacity:1;fill-rule:nonzero;stroke:#7b2d19;stroke-width:0.25;stroke-linecap:butt;stroke-linejoin:miter;stroke-miterlimit:4;stroke-dasharray:none;stroke-opacity:1"
           d="m 0,0 c -2.64,-0.982 -3.406,-3.173 -5.815,-3.925 -2.408,-0.754 -3.193,-2.571 -3.973,-3.242 -0.781,-0.668 -1.575,-0.278 -1.594,-0.595 -0.018,-0.319 0.935,-0.606 2.14,0.116 1.206,0.721 1.183,1.854 4.114,2.799 2.929,0.947 3.014,2.607 5.742,3.341 M 5.284,4.01 -8.559,-10.916 c 0,0 -0.27,-0.271 -0.091,-0.451 0.181,-0.181 0.451,0.091 0.451,0.091 L 6.727,2.567" /></g><g
         transform="translate(621.4935,3500.1689)"
         id="g1224"><path
           inkscape:connector-curvature="0"
           id="path1226"
           style="fill:#7b2d19;fill-opacity:1;fill-rule:nonzero;stroke:none"
           d="M 0,0 5.815,-12.707 0.941,0.39 m 0.817,-7.453 c 0.134,-2.701 1.667,-3.898 1.366,-6.359 0.66,1.947 -0.931,3.455 -0.842,6.333" /></g><g
         transform="translate(621.4439,3500.3665)"
         id="g1228"><path
           inkscape:connector-curvature="0"
           id="path1230"
           style="fill:#7b2d19;fill-opacity:1;fill-rule:nonzero;stroke:none"
           d="M 0,0 0.51,-13.965 1.02,0 m -2.099,-7.197 c -0.909,-2.549 0.048,-4.24 -1.171,-6.4 1.356,1.547 0.461,3.551 1.646,6.172" /></g><g
         transform="translate(621.4736,3500.5679)"
         id="g1232"><path
           inkscape:connector-curvature="0"
           id="path1234"
           style="fill:#7b2d19;fill-opacity:1;fill-rule:nonzero;stroke:none"
           d="M 0,0 -4.872,-13.097 0.943,-0.39 M -3.75,-6.238 c -1.815,-2.006 -1.579,-3.934 -3.532,-5.463 1.843,0.909 1.784,3.104 3.884,5.073" /></g><g
         transform="translate(621.5789,3500.7424)"
         id="g1236"><path
           inkscape:connector-curvature="0"
           id="path1238"
           style="fill:#7b2d19;fill-opacity:1;fill-rule:nonzero;stroke:none"
           d="m 0,0 -9.516,-10.237 10.237,9.516 m -6.572,-3.606 c -2.447,-1.159 -2.966,-3.032 -5.356,-3.697 2.053,0.136 2.837,2.185 5.53,3.201" /></g><g
         transform="translate(615.156,3499.6531)"
         id="g1240"><path
           inkscape:connector-curvature="0"
           id="path1242"
           style="fill:#f5ac1a;fill-opacity:1;fill-rule:nonzero;stroke:#7b2d19;stroke-width:0.25;stroke-linecap:butt;stroke-linejoin:miter;stroke-miterlimit:4;stroke-dasharray:none;stroke-opacity:1"
           d="m 0,0 c -2.813,0.104 -4.362,-1.628 -6.874,-1.4 -2.514,0.225 -3.933,-1.155 -4.91,-1.476 -0.978,-0.319 -1.561,0.345 -1.701,0.059 -0.141,-0.287 0.632,-0.915 2.022,-0.712 1.388,0.206 1.803,1.261 4.87,1.013 3.071,-0.248 3.784,1.256 6.585,0.89 m 6.426,3.309 -18.503,-8.494 c 0,0 -0.354,-0.144 -0.256,-0.382 0.098,-0.236 0.451,-0.089 0.451,-0.089 l 19.089,7.079" /></g><g
         transform="translate(615.3911,3502.3147)"
         id="g1244"><path
           inkscape:connector-curvature="0"
           id="path1246"
           style="fill:#f5ac1a;fill-opacity:1;fill-rule:nonzero;stroke:#7b2d19;stroke-width:0.25;stroke-linecap:butt;stroke-linejoin:miter;stroke-miterlimit:4;stroke-dasharray:none;stroke-opacity:1"
           d="m 0,0 c -2.559,1.173 -4.652,0.167 -6.886,1.335 -2.236,1.171 -4.077,0.441 -5.101,0.519 -1.027,0.077 -1.311,0.916 -1.549,0.705 -0.24,-0.214 0.234,-1.09 1.595,-1.431 1.362,-0.342 2.147,0.473 4.888,-0.929 2.74,-1.404 3.976,-0.289 6.423,-1.699 m 7.203,0.599 -20.343,-0.766 c 0,0 -0.382,0 -0.382,-0.254 -0.002,-0.256 0.382,-0.256 0.382,-0.256 L 6.573,-2.943" /></g><g
         transform="translate(616.6276,3504.6833)"
         id="g1248"><path
           inkscape:connector-curvature="0"
           id="path1250"
           style="fill:#f5ac1a;fill-opacity:1;fill-rule:nonzero;stroke:#7b2d19;stroke-width:0.25;stroke-linecap:butt;stroke-linejoin:miter;stroke-miterlimit:4;stroke-dasharray:none;stroke-opacity:1"
           d="m 0,0 c -1.917,2.063 -4.234,1.933 -5.851,3.87 -1.618,1.937 -3.598,1.965 -4.516,2.431 -0.917,0.465 -0.858,1.349 -1.161,1.243 -0.301,-0.103 -0.199,-1.095 0.927,-1.932 1.128,-0.838 2.166,-0.384 4.16,-2.73 1.994,-2.343 3.563,-1.787 5.285,-4.024 m 6.883,-2.205 -19.088,7.076 c 0,0 -0.354,0.147 -0.449,-0.087 -0.1,-0.237 0.256,-0.382 0.256,-0.382 L 4.947,-5.233" /></g><g
         transform="translate(618.676,3506.3992)"
         id="g1252"><path
           inkscape:connector-curvature="0"
           id="path1254"
           style="fill:#f5ac1a;fill-opacity:1;fill-rule:nonzero;stroke:#7b2d19;stroke-width:0.25;stroke-linecap:butt;stroke-linejoin:miter;stroke-miterlimit:4;stroke-dasharray:none;stroke-opacity:1"
           d="m 0,0 c -0.982,2.64 -3.173,3.406 -3.925,5.815 -0.754,2.408 -2.571,3.193 -3.241,3.973 -0.669,0.781 -0.279,1.575 -0.596,1.594 C -8.081,11.4 -8.368,10.447 -7.646,9.241 -6.925,8.036 -5.792,8.059 -4.847,5.128 -3.9,2.199 -2.24,2.114 -1.506,-0.614 M 4.01,-5.284 -10.916,8.559 c 0,0 -0.271,0.27 -0.451,0.089 -0.181,-0.179 0.091,-0.449 0.091,-0.449 L 2.567,-6.729" /></g><g
         transform="translate(621.7415,3500.8638)"
         id="g1256"><path
           inkscape:connector-curvature="0"
           id="path1258"
           style="fill:#7b2d19;fill-opacity:1;fill-rule:nonzero;stroke:none"
           d="M 0,0 -12.707,-5.815 0.39,-0.943 m -7.453,-0.815 c -2.701,-0.136 -3.898,-1.667 -6.359,-1.366 1.947,-0.661 3.455,0.931 6.333,0.842" /></g><g
         transform="translate(621.939,3500.9133)"
         id="g1260"><path
           inkscape:connector-curvature="0"
           id="path1262"
           style="fill:#7b2d19;fill-opacity:1;fill-rule:nonzero;stroke:none"
           d="M 0,0 -13.965,-0.51 0,-1.02 m -7.197,2.099 c -2.549,0.909 -4.24,-0.049 -6.4,1.171 1.547,-1.356 3.551,-0.462 6.173,-1.646" /></g><g
         transform="translate(622.1404,3500.8835)"
         id="g1264"><path
           inkscape:connector-curvature="0"
           id="path1266"
           style="fill:#7b2d19;fill-opacity:1;fill-rule:nonzero;stroke:none"
           d="M 0,0 -13.097,4.872 -0.39,-0.943 M -6.238,3.75 c -2.006,1.815 -3.934,1.579 -5.463,3.532 0.909,-1.843 3.104,-1.784 5.073,-3.884" /></g><g
         transform="translate(622.3152,3500.7783)"
         id="g1268"><path
           inkscape:connector-curvature="0"
           id="path1270"
           style="fill:#7b2d19;fill-opacity:1;fill-rule:nonzero;stroke:none"
           d="m 0,0 -10.237,9.516 9.515,-10.237 m -3.605,6.572 c -1.159,2.447 -3.032,2.966 -3.697,5.356 0.136,-2.053 2.185,-2.837 3.201,-5.53" /></g><g
         transform="translate(621.2255,3507.2012)"
         id="g1272"><path
           inkscape:connector-curvature="0"
           id="path1274"
           style="fill:#f5ac1a;fill-opacity:1;fill-rule:nonzero;stroke:#7b2d19;stroke-width:0.25;stroke-linecap:butt;stroke-linejoin:miter;stroke-miterlimit:4;stroke-dasharray:none;stroke-opacity:1"
           d="m 0,0 c 0.104,2.813 -1.628,4.362 -1.4,6.874 0.225,2.514 -1.155,3.932 -1.476,4.91 -0.319,0.978 0.346,1.561 0.059,1.701 -0.287,0.14 -0.915,-0.632 -0.711,-2.022 0.205,-1.388 1.26,-1.803 1.012,-4.87 -0.248,-3.071 1.256,-3.784 0.89,-6.585 m 3.309,-6.426 -8.494,18.501 c 0,0 -0.144,0.355 -0.382,0.258 -0.236,-0.1 -0.089,-0.451 -0.089,-0.451 l 7.079,-19.089" /></g><g
         transform="translate(623.8871,3506.9658)"
         id="g1276"><path
           inkscape:connector-curvature="0"
           id="path1278"
           style="fill:#f5ac1a;fill-opacity:1;fill-rule:nonzero;stroke:#7b2d19;stroke-width:0.25;stroke-linecap:butt;stroke-linejoin:miter;stroke-miterlimit:4;stroke-dasharray:none;stroke-opacity:1"
           d="m 0,0 c 1.173,2.559 0.167,4.652 1.335,6.886 1.171,2.236 0.441,4.077 0.519,5.101 0.077,1.027 0.916,1.311 0.705,1.549 C 2.345,13.774 1.469,13.302 1.128,11.941 0.784,10.579 1.602,9.794 0.199,7.052 -1.205,4.313 -0.089,3.077 -1.5,0.63 m 0.6,-7.203 -0.767,20.343 c 0,0 0,0.382 -0.256,0.382 -0.254,0 -0.254,-0.382 -0.254,-0.382 L -2.943,-6.573" /></g><g
         transform="translate(626.2559,3505.7292)"
         id="g1280"><path
           inkscape:connector-curvature="0"
           id="path1282"
           style="fill:#f5ac1a;fill-opacity:1;fill-rule:nonzero;stroke:#7b2d19;stroke-width:0.25;stroke-linecap:butt;stroke-linejoin:miter;stroke-miterlimit:4;stroke-dasharray:none;stroke-opacity:1"
           d="m 0,0 c 2.063,1.917 1.933,4.234 3.87,5.851 1.937,1.618 1.965,3.598 2.431,4.516 0.465,0.917 1.349,0.858 1.243,1.159 C 7.441,11.829 6.449,11.727 5.612,10.599 4.774,9.473 5.227,8.435 2.882,6.441 0.539,4.447 1.095,2.878 -1.142,1.156 m -2.205,-6.884 7.076,19.087 c 0,0 0.147,0.354 -0.087,0.452 C 3.404,13.91 3.26,13.554 3.26,13.554 L -5.234,-4.947" /></g><g
         transform="translate(627.9719,3503.6809)"
         id="g1284"><path
           inkscape:connector-curvature="0"
           id="path1286"
           style="fill:#f5ac1a;fill-opacity:1;fill-rule:nonzero;stroke:#7b2d19;stroke-width:0.25;stroke-linecap:butt;stroke-linejoin:miter;stroke-miterlimit:4;stroke-dasharray:none;stroke-opacity:1"
           d="m 0,0 c 2.64,0.982 3.406,3.173 5.815,3.925 2.408,0.754 3.193,2.571 3.973,3.241 0.781,0.669 1.575,0.279 1.594,0.596 C 11.4,8.081 10.447,8.367 9.242,7.646 8.036,6.925 8.059,5.792 5.128,4.847 2.199,3.9 2.114,2.24 -0.614,1.506 M -5.284,-4.01 8.559,10.916 c 0,0 0.27,0.271 0.089,0.451 C 8.469,11.548 8.199,11.276 8.199,11.276 L -6.729,-2.567" /></g><g
         transform="translate(622.4362,3500.6155)"
         id="g1288"><path
           inkscape:connector-curvature="0"
           id="path1290"
           style="fill:#7b2d19;fill-opacity:1;fill-rule:nonzero;stroke:none"
           d="M 0,0 -5.815,12.707 -0.943,-0.39 m -0.815,7.453 c -0.136,2.701 -1.667,3.898 -1.366,6.359 -0.66,-1.947 0.931,-3.455 0.842,-6.333" /></g><g
         transform="translate(622.486,3500.4182)"
         id="g1292"><path
           inkscape:connector-curvature="0"
           id="path1294"
           style="fill:#7b2d19;fill-opacity:1;fill-rule:nonzero;stroke:none"
           d="M 0,0 -0.51,13.965 -1.02,0 M 1.079,7.197 C 1.988,9.746 1.03,11.437 2.25,13.597 0.894,12.05 1.789,10.046 0.604,7.425" /></g><g
         transform="translate(622.4561,3500.2166)"
         id="g1296"><path
           inkscape:connector-curvature="0"
           id="path1298"
           style="fill:#7b2d19;fill-opacity:1;fill-rule:nonzero;stroke:none"
           d="M 0,0 4.872,13.097 -0.943,0.39 M 3.75,6.236 C 5.565,8.243 5.329,10.172 7.282,11.701 5.439,10.792 5.498,8.597 3.398,6.628" /></g><g
         transform="translate(622.3508,3500.042)"
         id="g1300"><path
           inkscape:connector-curvature="0"
           id="path1302"
           style="fill:#7b2d19;fill-opacity:1;fill-rule:nonzero;stroke:none"
           d="M 0,0 9.514,10.235 -0.722,0.721 M 5.851,4.327 C 8.298,5.486 8.817,7.359 11.207,8.024 9.154,7.888 8.37,5.839 5.677,4.823" /></g><g
         transform="translate(628.7737,3501.1316)"
         id="g1304"><path
           inkscape:connector-curvature="0"
           id="path1306"
           style="fill:#f5ac1a;fill-opacity:1;fill-rule:nonzero;stroke:#7b2d19;stroke-width:0.25;stroke-linecap:butt;stroke-linejoin:miter;stroke-miterlimit:4;stroke-dasharray:none;stroke-opacity:1"
           d="m 0,0 c 2.813,-0.104 4.362,1.628 6.874,1.4 2.514,-0.225 3.932,1.155 4.91,1.476 0.978,0.319 1.561,-0.346 1.701,-0.059 0.14,0.287 -0.632,0.914 -2.022,0.711 C 10.075,3.323 9.66,2.268 6.593,2.516 3.522,2.764 2.809,1.26 0.008,1.626 m -6.427,-3.309 18.502,8.494 c 0,0 0.355,0.144 0.258,0.382 -0.1,0.234 -0.451,0.089 -0.451,0.089 L -7.199,0.203" /></g><g
         transform="translate(628.5386,3498.47)"
         id="g1308"><path
           inkscape:connector-curvature="0"
           id="path1310"
           style="fill:#f5ac1a;fill-opacity:1;fill-rule:nonzero;stroke:#7b2d19;stroke-width:0.25;stroke-linecap:butt;stroke-linejoin:miter;stroke-miterlimit:4;stroke-dasharray:none;stroke-opacity:1"
           d="m 0,0 c 2.559,-1.173 4.652,-0.167 6.886,-1.337 2.236,-1.169 4.077,-0.439 5.101,-0.517 1.027,-0.077 1.311,-0.916 1.549,-0.705 0.238,0.212 -0.234,1.09 -1.595,1.431 C 10.579,-0.787 9.794,-1.602 7.052,-0.199 4.313,1.205 3.077,0.089 0.63,1.498 M -6.573,0.9 13.77,1.667 c 0,0 0.382,0 0.382,0.254 0,0.256 -0.382,0.256 -0.382,0.256 L -6.573,2.943" /></g><g
         transform="translate(627.3021,3496.1011)"
         id="g1312"><path
           inkscape:connector-curvature="0"
           id="path1314"
           style="fill:#f5ac1a;fill-opacity:1;fill-rule:nonzero;stroke:#7b2d19;stroke-width:0.25;stroke-linecap:butt;stroke-linejoin:miter;stroke-miterlimit:4;stroke-dasharray:none;stroke-opacity:1"
           d="m 0,0 c 1.917,-2.063 4.234,-1.933 5.851,-3.87 1.618,-1.937 3.598,-1.965 4.516,-2.431 0.917,-0.465 0.858,-1.349 1.159,-1.243 0.303,0.103 0.201,1.095 -0.927,1.932 -1.126,0.838 -2.164,0.383 -4.158,2.73 -1.994,2.343 -3.563,1.787 -5.285,4.024 m -6.883,2.205 19.086,-7.076 c 0,0 0.354,-0.149 0.451,0.087 0.1,0.236 -0.256,0.382 -0.256,0.382 L -4.947,5.233" /></g><g
         transform="translate(625.2537,3494.3853)"
         id="g1316"><path
           inkscape:connector-curvature="0"
           id="path1318"
           style="fill:#f5ac1a;fill-opacity:1;fill-rule:nonzero;stroke:#7b2d19;stroke-width:0.25;stroke-linecap:butt;stroke-linejoin:miter;stroke-miterlimit:4;stroke-dasharray:none;stroke-opacity:1"
           d="m 0,0 c 0.982,-2.64 3.173,-3.406 3.925,-5.815 0.754,-2.408 2.571,-3.193 3.241,-3.973 0.669,-0.781 0.279,-1.575 0.596,-1.594 0.319,-0.018 0.605,0.935 -0.116,2.141 C 6.924,-8.036 5.792,-8.059 4.847,-5.128 3.9,-2.199 2.24,-2.114 1.506,0.614 M -4.01,5.284 10.916,-8.559 c 0,0 0.271,-0.27 0.451,-0.091 0.181,0.181 -0.091,0.451 -0.091,0.451 L -2.567,6.729" /></g><g
         transform="translate(622.1882,3499.9209)"
         id="g1320"><path
           inkscape:connector-curvature="0"
           id="path1322"
           style="fill:#7b2d19;fill-opacity:1;fill-rule:nonzero;stroke:none"
           d="M 0,0 12.707,5.815 -0.39,0.943 M 7.063,1.758 C 9.764,1.892 10.961,3.425 13.422,3.124 11.475,3.784 9.965,2.193 7.089,2.282" /></g><g
         transform="translate(621.9907,3499.8713)"
         id="g1324"><path
           inkscape:connector-curvature="0"
           id="path1326"
           style="fill:#7b2d19;fill-opacity:1;fill-rule:nonzero;stroke:none"
           d="M 0,0 13.965,0.51 0,1.02 m 7.197,-2.099 c 2.548,-0.909 4.239,0.048 6.4,-1.171 -1.547,1.356 -3.551,0.461 -6.173,1.646" /></g><g
         transform="translate(621.7892,3499.9011)"
         id="g1328"><path
           inkscape:connector-curvature="0"
           id="path1330"
           style="fill:#7b2d19;fill-opacity:1;fill-rule:nonzero;stroke:none"
           d="M 0,0 13.097,-4.872 0.39,0.943 M 6.236,-3.75 c 2.008,-1.815 3.936,-1.579 5.465,-3.532 -0.909,1.843 -3.104,1.784 -5.073,3.884" /></g><g
         transform="translate(621.6144,3500.0061)"
         id="g1332"><path
           inkscape:connector-curvature="0"
           id="path1334"
           style="fill:#7b2d19;fill-opacity:1;fill-rule:nonzero;stroke:none"
           d="M 0,0 10.235,-9.516 0.721,0.721 m 3.606,-6.572 c 1.159,-2.447 3.032,-2.966 3.697,-5.356 -0.136,2.053 -2.185,2.837 -3.201,5.53" /></g><g
         transform="translate(621.9648,3508.6829)"
         id="g1336"><path
           inkscape:connector-curvature="0"
           id="path1338"
           style="fill:#f5ac1a;fill-opacity:1;fill-rule:nonzero;stroke:none"
           d="m 0,0 c 4.579,0 8.29,-3.711 8.29,-8.291 0,-4.578 -3.711,-8.29 -8.29,-8.29 -4.579,0 -8.29,3.712 -8.29,8.29 C -8.29,-3.711 -4.579,0 0,0" /></g><g
         transform="translate(621.9648,3508.6829)"
         id="g1340"><path
           inkscape:connector-curvature="0"
           id="path1342"
           style="fill:none;stroke:#7b2d19;stroke-width:0.25;stroke-linecap:butt;stroke-linejoin:miter;stroke-miterlimit:4;stroke-dasharray:none;stroke-opacity:1"
           d="m 0,0 c 4.579,0 8.29,-3.711 8.29,-8.291 0,-4.578 -3.711,-8.29 -8.29,-8.29 -4.579,0 -8.29,3.712 -8.29,8.29 C -8.29,-3.711 -4.579,0 0,0 Z" /></g><g
         transform="translate(624.7822,3502.0347)"
         id="g1344"><path
           inkscape:connector-curvature="0"
           id="path1346"
           style="fill:#7a2d19;fill-opacity:1;fill-rule:nonzero;stroke:none"
           d="M 0,0 C 0.551,0.01 1.065,-0.244 1.138,-0.494 0.5,-1.195 -0.518,-1.136 -1.156,-0.626 -0.878,-0.179 -0.429,-0.008 0,0 M 0.008,0.13 C -0.557,0.13 -1.1,-0.116 -1.419,-0.626 -0.78,-1.199 0.628,-1.262 1.585,-0.559 1.171,-0.114 0.575,0.13 0.008,0.13" /></g><g
         transform="translate(624.8984,3502.5588)"
         id="g1348"><path
           inkscape:connector-curvature="0"
           id="path1350"
           style="fill:#7b2d19;fill-opacity:1;fill-rule:nonzero;stroke:none"
           d="m 0,0 c -0.829,0 -1.02,-0.191 -1.402,-0.51 -0.382,-0.319 -0.576,-0.254 -0.639,-0.319 -0.063,-0.063 0,-0.254 0.128,-0.192 0.126,0.066 0.383,0.192 0.765,0.511 0.384,0.319 0.766,0.319 1.148,0.319 1.148,0 1.784,-0.955 1.912,-0.892 C 2.041,-1.021 1.274,0 0,0" /></g><g
         transform="translate(627.1938,3502.1768)"
         id="g1352"><path
           inkscape:connector-curvature="0"
           id="path1354"
           style="fill:#7b2d19;fill-opacity:1;fill-rule:nonzero;stroke:none"
           d="m 0,0 c -1.467,1.274 -3.315,1.467 -4.337,0.51 -0.25,-0.335 -0.409,-0.691 -0.476,-1.065 -0.128,-0.726 0.1,-1.512 0.669,-2.315 -0.065,0 -0.193,-0.063 -0.256,-0.128 -0.506,0.967 -0.685,1.963 -0.519,2.91 0.043,0.246 0.11,0.49 0.2,0.726 C -3.317,1.786 -1.404,1.912 0,0" /></g><g
         transform="translate(624.7704,3502.1152)"
         id="g1356"><path
           inkscape:connector-curvature="0"
           id="path1358"
           style="fill:#7b2d19;fill-opacity:1;fill-rule:nonzero;stroke:none"
           d="M 0,0 C 0.317,0 0.575,-0.256 0.575,-0.573 0.575,-0.89 0.317,-1.148 0,-1.148 c -0.317,0 -0.573,0.258 -0.573,0.575 C -0.573,-0.256 -0.317,0 0,0" /></g><g
         transform="translate(626.4297,3501.1563)"
         id="g1360"><path
           inkscape:connector-curvature="0"
           id="path1362"
           style="fill:#7b2d19;fill-opacity:1;fill-rule:nonzero;stroke:none"
           d="M 0,0 C -1.085,-0.829 -2.169,-0.764 -2.807,-0.382 -3.443,0 -3.443,0.126 -3.317,0.126 -3.189,0.126 -3.061,0 -2.551,-0.254 -2.041,-0.51 -1.276,-0.51 0,0" /></g><g
         transform="translate(620.6966,3499.2461)"
         id="g1364"><path
           inkscape:connector-curvature="0"
           id="path1366"
           style="fill:#7b2d19;fill-opacity:1;fill-rule:nonzero;stroke:none"
           d="m 0,0 c -0.272,-0.049 -0.465,-0.293 -0.465,-0.569 0,-0.317 0.26,-0.569 0.577,-0.569 0.187,0 0.357,0.089 0.465,0.244 0.222,-0.167 0.527,-0.185 0.691,-0.187 0.025,-0.002 0.057,0 0.075,0 0.163,0.002 0.47,0.02 0.689,0.187 0.108,-0.155 0.281,-0.244 0.466,-0.244 0.317,0 0.579,0.252 0.579,0.569 0,0.276 -0.193,0.52 -0.465,0.569 0.152,-0.053 0.252,-0.201 0.252,-0.364 0,-0.211 -0.171,-0.382 -0.382,-0.382 -0.204,0 -0.372,0.161 -0.385,0.364 C 2.036,-0.506 1.789,-0.876 1.307,-0.894 0.821,-0.876 0.575,-0.506 0.512,-0.382 0.502,-0.585 0.333,-0.746 0.13,-0.746 c -0.211,0 -0.382,0.171 -0.382,0.382 0,0.163 0.1,0.311 0.252,0.364" /></g><g
         transform="translate(621.3197,3497.5483)"
         id="g1368"><path
           inkscape:connector-curvature="0"
           id="path1370"
           style="fill:#7b2d19;fill-opacity:1;fill-rule:nonzero;stroke:none"
           d="m 0,0 c -0.638,0 -0.89,-0.579 -1.463,-0.961 0.319,0.128 0.569,0.38 1.016,0.634 C 0,-0.071 0.38,-0.382 0.634,-0.382 h 0.01 c 0.254,0 0.634,0.311 1.082,0.055 C 2.173,-0.581 2.433,-0.833 2.752,-0.961 2.177,-0.579 1.917,0 1.278,0 1.15,0 0.898,-0.069 0.644,-0.195 H 0.634 C 0.38,-0.069 0.128,0 0,0" /></g><g
         transform="translate(621.1055,3496.793)"
         id="g1372"><path
           inkscape:connector-curvature="0"
           id="path1374"
           style="fill:#7b2d19;fill-opacity:1;fill-rule:nonzero;stroke:none"
           d="m 0,0 c -0.252,-0.01 -0.585,-0.061 -1.063,-0.205 1.148,0.254 1.402,-0.13 1.911,-0.13 h 0.01 c 0.51,0 0.764,0.384 1.912,0.13 -1.276,0.382 -1.53,0.13 -1.912,0.13 H 0.848 C 0.61,-0.075 0.421,0.018 0,0" /></g><g
         transform="translate(620.0991,3496.5964)"
         id="g1376"><path
           inkscape:connector-curvature="0"
           id="path1378"
           style="fill:#7b2d19;fill-opacity:1;fill-rule:nonzero;stroke:none"
           d="m 0,0 c -0.073,0 -0.154,-0.002 -0.242,-0.01 1.339,-0.126 0.695,-0.895 2.098,-0.895 h 0.01 c 1.402,0 0.768,0.769 2.107,0.895 C 2.571,0.118 3.014,-0.709 1.866,-0.709 H 1.856 C 0.78,-0.709 1.112,0.014 0,0" /></g><g
         transform="translate(623.114,3494.5244)"
         id="g1380"><path
           inkscape:connector-curvature="0"
           id="path1382"
           style="fill:#7b2d19;fill-opacity:1;fill-rule:nonzero;stroke:none"
           d="M 0,0 C 0,0.634 -0.514,1.148 -1.148,1.148 -1.783,1.148 -2.297,0.634 -2.297,0 -2.171,0.532 -1.693,0.906 -1.148,0.906 -0.602,0.906 -0.126,0.532 0,0" /></g><g
         transform="translate(616.8104,3502.1768)"
         id="g1384"><path
           inkscape:connector-curvature="0"
           id="path1386"
           style="fill:#7b2d19;fill-opacity:1;fill-rule:nonzero;stroke:none"
           d="m 0,0 c 1.467,1.274 3.315,1.467 4.337,0.51 0.25,-0.335 0.409,-0.691 0.476,-1.065 0.128,-0.726 -0.1,-1.512 -0.669,-2.315 0.065,0 0.193,-0.063 0.256,-0.128 0.506,0.967 0.685,1.963 0.518,2.91 C 4.876,0.158 4.809,0.402 4.719,0.638 3.317,1.786 1.404,1.912 0,0" /></g><g
         transform="translate(619.1058,3502.5588)"
         id="g1388"><path
           inkscape:connector-curvature="0"
           id="path1390"
           style="fill:#7b2d19;fill-opacity:1;fill-rule:nonzero;stroke:none"
           d="m 0,0 c 0.829,0 1.02,-0.191 1.402,-0.51 0.382,-0.319 0.576,-0.254 0.639,-0.319 0.063,-0.063 0,-0.254 -0.128,-0.192 C 1.784,-0.955 1.53,-0.829 1.148,-0.51 0.764,-0.191 0.382,-0.191 0,-0.191 c -1.148,0 -1.784,-0.955 -1.913,-0.892 C -2.041,-1.021 -1.274,0 0,0" /></g><g
         transform="translate(619.0571,3502.0347)"
         id="g1392"><path
           inkscape:connector-curvature="0"
           id="path1394"
           style="fill:#7a2d19;fill-opacity:1;fill-rule:nonzero;stroke:none"
           d="M 0,0 C 0.551,0.01 1.065,-0.244 1.138,-0.494 0.5,-1.195 -0.518,-1.136 -1.156,-0.626 -0.878,-0.179 -0.429,-0.008 0,0 M 0.008,0.13 C -0.557,0.13 -1.1,-0.116 -1.417,-0.626 -0.78,-1.199 0.63,-1.262 1.585,-0.559 1.171,-0.114 0.575,0.13 0.008,0.13" /></g><g
         transform="translate(619.1414,3502.1152)"
         id="g1396"><path
           inkscape:connector-curvature="0"
           id="path1398"
           style="fill:#7b2d19;fill-opacity:1;fill-rule:nonzero;stroke:none"
           d="M 0,0 C 0.317,0 0.573,-0.256 0.573,-0.573 0.573,-0.89 0.317,-1.148 0,-1.148 c -0.317,0 -0.573,0.258 -0.573,0.575 C -0.573,-0.256 -0.317,0 0,0" /></g><g
         transform="translate(617.5743,3501.1563)"
         id="g1400"><path
           inkscape:connector-curvature="0"
           id="path1402"
           style="fill:#7b2d19;fill-opacity:1;fill-rule:nonzero;stroke:none"
           d="M 0,0 C 1.085,-0.829 2.169,-0.764 2.805,-0.382 3.443,0 3.443,0.126 3.317,0.126 3.189,0.126 3.061,0 2.551,-0.254 2.041,-0.51 1.276,-0.51 0,0" /></g><g
         transform="translate(880.4667,3489.8472)"
         id="g1404"
         style="fill:#6d248c;fill-opacity:1"><path
           inkscape:connector-curvature="0"
           id="path1406"
           style="fill:#6d248c;fill-opacity:1;fill-rule:nonzero;stroke:none"
           d="M 0,0 -16.43,37.983 -33.347,0 Z m 2.765,-6.019 h -38.958 l -4.637,-10.736 c -1.519,-3.578 -2.277,-6.535 -2.277,-8.865 0,-3.091 1.247,-5.368 3.741,-6.832 1.465,-0.868 5.069,-1.519 10.817,-1.952 v -3.01 h -36.68 v 3.01 c 3.957,0.596 7.209,2.237 9.759,4.921 2.548,2.684 5.694,8.227 9.435,16.632 l 39.446,88.003 h 1.546 l 39.772,-90.443 c 3.794,-8.568 6.914,-13.962 9.353,-16.185 1.843,-1.682 4.445,-2.657 7.809,-2.928 v -3.01 H -1.465 v 3.01 h 2.196 c 4.284,0 7.292,0.596 9.029,1.789 1.192,0.867 1.789,2.115 1.789,3.741 0,0.977 -0.162,1.979 -0.488,3.01 -0.109,0.488 -0.922,2.521 -2.44,6.1 z" /></g><g
         transform="translate(971.3974,3528.4805)"
         id="g1408"
         style="fill:#6d248c;fill-opacity:1"><path
           inkscape:connector-curvature="0"
           id="path1410"
           style="fill:#6d248c;fill-opacity:1;fill-rule:nonzero;stroke:none"
           d="m 0,0 v -17.243 c 5.042,7.862 9.461,13.081 13.257,15.657 3.795,2.575 7.455,3.863 10.98,3.863 3.036,0 5.462,-0.935 7.28,-2.806 1.815,-1.87 2.724,-4.513 2.724,-7.929 0,-3.634 -0.882,-6.454 -2.643,-8.459 -1.763,-2.007 -3.892,-3.01 -6.385,-3.01 -2.875,0 -5.368,0.922 -7.483,2.766 -2.115,1.842 -3.363,2.873 -3.741,3.09 -0.543,0.326 -1.167,0.488 -1.871,0.488 -1.573,0 -3.063,-0.597 -4.473,-1.789 C 5.421,-17.216 3.741,-19.845 2.603,-23.261 0.866,-28.521 0,-34.323 0,-40.667 v -17.486 l 0.081,-4.555 c 0,-3.091 0.19,-5.071 0.569,-5.938 0.651,-1.463 1.613,-2.535 2.887,-3.212 1.274,-0.679 3.429,-1.098 6.467,-1.261 v -2.928 H -31.07 v 2.928 c 3.307,0.271 5.544,1.18 6.71,2.725 1.166,1.545 1.749,5.624 1.749,12.241 v 42.049 c 0,4.337 -0.217,7.103 -0.651,8.296 -0.543,1.517 -1.329,2.629 -2.358,3.335 -1.031,0.704 -2.847,1.192 -5.45,1.464 V 0 Z" /></g><g
         transform="translate(1048.502,3525.7153)"
         id="g1412"
         style="fill:#6d248c;fill-opacity:1"><path
           inkscape:connector-curvature="0"
           id="path1414"
           style="fill:#6d248c;fill-opacity:1;fill-rule:nonzero;stroke:none"
           d="m 0,0 c -3.146,0 -5.803,-1.586 -7.971,-4.758 -2.17,-3.172 -3.254,-9.747 -3.254,-19.723 0,-8.081 1.071,-13.624 3.213,-16.633 2.142,-3.01 4.677,-4.514 7.605,-4.514 3.254,0 5.964,1.49 8.134,4.473 2.168,2.982 3.252,8.784 3.252,17.405 0,9.706 -1.219,16.32 -3.66,19.846 C 5.584,-1.301 3.144,0 0,0 m -4.799,-84.506 c -5.531,0 -9.19,-0.46 -10.98,-1.383 -3.091,-1.679 -4.636,-3.957 -4.636,-6.832 0,-2.765 1.599,-5.272 4.799,-7.523 3.198,-2.249 9.217,-3.375 18.055,-3.375 7.537,0 13.461,1.004 17.772,3.009 4.31,2.007 6.466,4.827 6.466,8.459 0,1.356 -0.406,2.495 -1.22,3.416 -1.464,1.627 -3.674,2.738 -6.629,3.335 -2.956,0.597 -10.831,0.894 -23.627,0.894 M 14.07,1.871 H 39.69 V -7.076 H 25.132 c 2.656,-2.657 4.5,-5.071 5.53,-7.239 1.302,-2.928 1.952,-5.992 1.952,-9.19 0,-5.423 -1.505,-10.127 -4.513,-14.112 -3.01,-3.986 -7.105,-7.104 -12.282,-9.353 -5.178,-2.251 -9.774,-3.376 -13.786,-3.376 -0.325,0 -3.579,0.135 -9.76,0.407 -2.44,0 -4.487,-0.801 -6.141,-2.399 -1.654,-1.6 -2.481,-3.512 -2.481,-5.734 0,-1.952 0.745,-3.553 2.238,-4.799 1.49,-1.248 3.916,-1.871 7.279,-1.871 l 14.07,0.163 c 11.387,0 19.222,-1.248 23.506,-3.741 6.126,-3.471 9.191,-8.811 9.191,-16.023 0,-4.608 -1.412,-8.797 -4.23,-12.566 -2.82,-3.768 -6.534,-6.548 -11.143,-8.337 -6.995,-2.656 -15.046,-3.985 -24.156,-3.985 -6.832,0 -13.068,0.665 -18.707,1.993 -5.639,1.329 -9.679,3.172 -12.118,5.53 -2.44,2.359 -3.66,4.839 -3.66,7.442 0,2.495 0.935,4.731 2.806,6.71 1.871,1.98 5.354,3.647 10.452,5.002 -7.05,3.471 -10.575,8.296 -10.575,14.478 0,3.741 1.437,7.373 4.312,10.898 2.873,3.524 7.428,6.588 13.664,9.191 -7.267,2.656 -12.525,6.154 -15.779,10.492 -3.253,4.337 -4.88,9.353 -4.88,15.047 0,7.428 3.036,13.867 9.109,19.317 6.073,5.449 13.88,8.173 23.424,8.173 5.043,0 10.248,-1.057 15.616,-3.171" /></g><g
         transform="translate(1141.4658,3498.6309)"
         id="g1416"
         style="fill:#6d248c;fill-opacity:1"><path
           inkscape:connector-curvature="0"
           id="path1418"
           style="fill:#6d248c;fill-opacity:1;fill-rule:nonzero;stroke:none"
           d="m 0,0 c 0,8.729 -0.476,14.722 -1.424,17.975 -0.949,3.254 -2.427,5.72 -4.432,7.401 -1.139,0.977 -2.658,1.464 -4.555,1.464 -2.82,0 -5.124,-1.382 -6.913,-4.148 -3.2,-4.826 -4.799,-11.441 -4.799,-19.845 V 0 Z m 20.008,-5.449 h -41.725 c 0.488,-10.086 3.173,-18.056 8.053,-23.912 3.741,-4.501 8.241,-6.751 13.501,-6.751 3.254,0 6.208,0.907 8.865,2.725 2.656,1.816 5.503,5.083 8.54,9.801 l 2.766,-1.79 c -4.121,-8.405 -8.676,-14.355 -13.664,-17.853 -4.99,-3.497 -10.764,-5.246 -17.324,-5.246 -11.279,0 -19.819,4.338 -25.621,13.014 -4.664,6.995 -6.994,15.669 -6.994,26.026 0,12.688 3.429,22.787 10.288,30.297 6.86,7.51 14.897,11.265 24.116,11.265 7.699,0 14.382,-3.159 20.048,-9.475 5.666,-6.318 8.716,-15.685 9.151,-28.101" /></g><g
         transform="translate(1202.0596,3528.4805)"
         id="g1420"
         style="fill:#6d248c;fill-opacity:1"><path
           inkscape:connector-curvature="0"
           id="path1422"
           style="fill:#6d248c;fill-opacity:1;fill-rule:nonzero;stroke:none"
           d="m 0,0 v -9.841 c 3.904,4.229 7.646,7.306 11.224,9.231 3.579,1.924 7.428,2.887 11.549,2.887 4.934,0 9.028,-1.37 12.282,-4.107 3.253,-2.739 5.421,-6.141 6.507,-10.207 0.866,-3.091 1.3,-9.028 1.3,-17.813 v -29.605 c 0,-5.856 0.53,-9.503 1.586,-10.939 1.058,-1.438 3.267,-2.346 6.629,-2.725 v -2.928 H 12.606 v 2.928 c 2.873,0.379 4.934,1.572 6.182,3.579 0.866,1.354 1.301,4.717 1.301,10.085 v 33.835 c 0,6.235 -0.244,10.167 -0.732,11.793 -0.488,1.627 -1.315,2.888 -2.48,3.783 -1.167,0.894 -2.454,1.341 -3.863,1.341 C 8.35,-8.703 4.012,-12.037 0,-18.707 v -40.748 c 0,-5.693 0.528,-9.3 1.586,-10.817 1.058,-1.519 3.021,-2.468 5.896,-2.847 v -2.928 h -38.47 v 2.928 c 3.198,0.326 5.475,1.355 6.832,3.091 0.921,1.192 1.383,4.717 1.383,10.573 v 42.944 c 0,5.747 -0.53,9.326 -1.586,10.737 -1.058,1.409 -3.268,2.33 -6.629,2.765 V 0 Z" /></g><g
         transform="translate(1293.8037,3556.2964)"
         id="g1424"
         style="fill:#6d248c;fill-opacity:1"><path
           inkscape:connector-curvature="0"
           id="path1426"
           style="fill:#6d248c;fill-opacity:1;fill-rule:nonzero;stroke:none"
           d="m 0,0 v -27.816 h 18.056 v -8.052 H 0 v -46.929 c 0,-4.392 0.203,-7.226 0.609,-8.5 0.408,-1.274 1.125,-2.305 2.156,-3.09 1.029,-0.787 1.979,-1.18 2.846,-1.18 3.525,0 6.86,2.684 10.005,8.052 l 2.44,-1.789 C 13.664,-99.715 6.533,-104.92 -3.335,-104.92 c -4.827,0 -8.906,1.342 -12.241,4.026 -3.334,2.684 -5.463,5.679 -6.384,8.987 -0.543,1.843 -0.813,6.832 -0.813,14.966 v 41.073 h -9.923 v 2.847 c 6.832,4.825 12.647,9.895 17.446,15.209 4.798,5.313 8.987,11.251 12.565,17.812 z" /></g><g
         transform="translate(1337.3984,3565.3247)"
         id="g1428"
         style="fill:#6d248c;fill-opacity:1"><path
           inkscape:connector-curvature="0"
           id="path1430"
           style="fill:#6d248c;fill-opacity:1;fill-rule:nonzero;stroke:none"
           d="m 0,0 c 3.524,0 6.507,-1.234 8.946,-3.701 2.441,-2.468 3.66,-5.436 3.66,-8.906 0,-3.471 -1.233,-6.425 -3.7,-8.865 -2.468,-2.44 -5.436,-3.66 -8.906,-3.66 -3.471,0 -6.426,1.22 -8.865,3.66 -2.441,2.44 -3.66,5.394 -3.66,8.865 0,3.47 1.219,6.438 3.66,8.906 C -6.426,-1.234 -3.471,0 0,0 m 11.387,-36.844 v -60.268 c 0,-5.368 0.623,-8.799 1.871,-10.289 1.246,-1.492 3.686,-2.346 7.319,-2.562 v -2.928 h -41.073 v 2.928 c 3.361,0.108 5.856,1.084 7.482,2.928 1.084,1.246 1.627,4.555 1.627,9.923 v 44.408 c 0,5.368 -0.624,8.796 -1.871,10.288 -1.247,1.491 -3.659,2.345 -7.238,2.562 v 3.01 z" /></g><g
         transform="translate(1396.4473,3528.4805)"
         id="g1432"
         style="fill:#6d248c;fill-opacity:1"><path
           inkscape:connector-curvature="0"
           id="path1434"
           style="fill:#6d248c;fill-opacity:1;fill-rule:nonzero;stroke:none"
           d="m 0,0 v -9.841 c 3.904,4.229 7.646,7.306 11.224,9.231 3.579,1.924 7.428,2.887 11.549,2.887 4.934,0 9.028,-1.37 12.282,-4.107 3.253,-2.739 5.421,-6.141 6.507,-10.207 0.866,-3.091 1.3,-9.028 1.3,-17.813 v -29.605 c 0,-5.856 0.53,-9.503 1.586,-10.939 1.058,-1.438 3.267,-2.346 6.629,-2.725 v -2.928 H 12.606 v 2.928 c 2.873,0.379 4.934,1.572 6.182,3.579 0.866,1.354 1.301,4.717 1.301,10.085 v 33.835 c 0,6.235 -0.244,10.167 -0.732,11.793 -0.488,1.627 -1.315,2.888 -2.48,3.783 -1.167,0.894 -2.454,1.341 -3.863,1.341 C 8.35,-8.703 4.012,-12.037 0,-18.707 v -40.748 c 0,-5.693 0.528,-9.3 1.586,-10.817 1.058,-1.519 3.021,-2.468 5.896,-2.847 v -2.928 h -38.47 v 2.928 c 3.198,0.326 5.475,1.355 6.832,3.091 0.921,1.192 1.383,4.717 1.383,10.573 v 42.944 c 0,5.747 -0.53,9.326 -1.586,10.737 -1.058,1.409 -3.268,2.33 -6.629,2.765 V 0 Z" /></g><g
         transform="translate(1499.9844,3469.5952)"
         id="g1436"
         style="fill:#6d248c;fill-opacity:1"><path
           inkscape:connector-curvature="0"
           id="path1438"
           style="fill:#6d248c;fill-opacity:1;fill-rule:nonzero;stroke:none"
           d="m 0,0 v 25.457 c -6.562,-3.851 -11.441,-7.971 -14.64,-12.363 -2.115,-2.927 -3.172,-5.884 -3.172,-8.865 0,-2.495 0.895,-4.69 2.684,-6.588 1.355,-1.464 3.253,-2.196 5.693,-2.196 2.711,0 5.857,1.517 9.435,4.555 m 0,-5.937 c -9.271,-8.188 -17.596,-12.282 -24.97,-12.282 -4.338,0 -7.943,1.424 -10.817,4.27 -2.874,2.847 -4.311,6.411 -4.311,10.696 0,5.801 2.494,11.02 7.484,15.656 4.987,4.636 15.859,10.804 32.614,18.504 v 7.645 c 0,5.747 -0.312,9.366 -0.936,10.858 -0.624,1.49 -1.802,2.792 -3.538,3.904 -1.735,1.111 -3.687,1.667 -5.855,1.667 -3.525,0 -6.426,-0.786 -8.703,-2.358 -1.41,-0.977 -2.114,-2.115 -2.114,-3.416 0,-1.139 0.758,-2.55 2.277,-4.23 2.059,-2.332 3.091,-4.582 3.091,-6.75 0,-2.658 -0.991,-4.921 -2.969,-6.792 -1.981,-1.871 -4.569,-2.806 -7.768,-2.806 -3.416,0 -6.276,1.03 -8.581,3.091 -2.304,2.06 -3.456,4.473 -3.456,7.238 0,3.905 1.545,7.632 4.636,11.184 3.091,3.551 7.401,6.275 12.932,8.174 5.531,1.897 11.277,2.847 17.243,2.847 7.211,0 12.918,-1.533 17.121,-4.596 4.201,-3.064 6.926,-6.384 8.174,-9.963 0.758,-2.277 1.138,-7.511 1.138,-15.697 V 1.382 c 0,-3.47 0.135,-5.652 0.407,-6.547 0.27,-0.895 0.677,-1.559 1.219,-1.993 0.542,-0.434 1.166,-0.65 1.871,-0.65 1.41,0 2.847,1.002 4.311,3.009 l 2.44,-1.952 c -2.711,-4.013 -5.518,-6.927 -8.418,-8.743 -2.901,-1.817 -6.195,-2.725 -9.882,-2.725 -4.338,0 -7.727,1.017 -10.166,3.05 -2.441,2.033 -3.933,5.11 -4.474,9.232" /></g><g
         transform="translate(1655.5762,3565.2432)"
         id="g1440"
         style="fill:#6d248c;fill-opacity:1"><path
           inkscape:connector-curvature="0"
           id="path1442"
           style="fill:#6d248c;fill-opacity:1;fill-rule:nonzero;stroke:none"
           d="M 0,0 0.895,-36.763 H -2.44 c -1.574,9.218 -5.437,16.633 -11.59,22.245 -6.155,5.612 -12.81,8.418 -19.968,8.418 -5.53,0 -9.909,-1.478 -13.135,-4.433 -3.226,-2.956 -4.84,-6.358 -4.84,-10.207 0,-2.44 0.57,-4.609 1.708,-6.507 1.573,-2.549 4.094,-5.07 7.565,-7.564 2.548,-1.789 8.43,-4.961 17.649,-9.516 12.905,-6.344 21.607,-12.336 26.108,-17.974 4.446,-5.64 6.67,-12.093 6.67,-19.358 0,-9.218 -3.593,-17.149 -10.777,-23.79 -7.185,-6.642 -16.307,-9.963 -27.369,-9.963 -3.471,0 -6.751,0.353 -9.842,1.057 -3.09,0.706 -6.968,2.033 -11.63,3.985 -2.603,1.084 -4.746,1.627 -6.425,1.627 -1.412,0 -2.902,-0.543 -4.474,-1.627 -1.573,-1.085 -2.847,-2.737 -3.822,-4.961 h -3.01 v 41.643 h 3.01 c 2.384,-11.712 6.98,-20.646 13.786,-26.799 6.804,-6.155 14.138,-9.232 22.001,-9.232 6.071,0 10.911,1.654 14.517,4.962 3.606,3.306 5.409,7.157 5.409,11.549 0,2.603 -0.691,5.124 -2.074,7.564 -1.382,2.44 -3.485,4.758 -6.303,6.954 -2.821,2.196 -7.808,5.055 -14.965,8.581 -10.032,4.933 -17.243,9.136 -21.635,12.606 -4.393,3.47 -7.768,7.347 -10.127,11.631 -2.358,4.283 -3.537,9 -3.537,14.152 0,8.784 3.225,16.267 9.679,22.448 C -53.41,-3.09 -45.276,0 -35.462,0 c 3.579,0 7.048,-0.435 10.411,-1.301 2.548,-0.651 5.653,-1.858 9.313,-3.619 3.66,-1.763 6.221,-2.644 7.685,-2.644 1.41,0 2.522,0.434 3.335,1.301 0.814,0.867 1.572,2.955 2.278,6.263 z" /></g><g
         transform="translate(1719.9922,3498.6309)"
         id="g1444"
         style="fill:#6d248c;fill-opacity:1"><path
           inkscape:connector-curvature="0"
           id="path1446"
           style="fill:#6d248c;fill-opacity:1;fill-rule:nonzero;stroke:none"
           d="m 0,0 c 0,8.729 -0.476,14.722 -1.424,17.975 -0.949,3.254 -2.427,5.72 -4.432,7.401 -1.139,0.977 -2.658,1.464 -4.555,1.464 -2.82,0 -5.124,-1.382 -6.913,-4.148 -3.2,-4.826 -4.799,-11.441 -4.799,-19.845 V 0 Z m 20.008,-5.449 h -41.725 c 0.488,-10.086 3.173,-18.056 8.053,-23.912 3.741,-4.501 8.241,-6.751 13.501,-6.751 3.254,0 6.208,0.907 8.865,2.725 2.656,1.816 5.503,5.083 8.54,9.801 l 2.766,-1.79 c -4.121,-8.405 -8.676,-14.355 -13.664,-17.853 -4.99,-3.497 -10.764,-5.246 -17.324,-5.246 -11.279,0 -19.819,4.338 -25.621,13.014 -4.664,6.995 -6.994,15.669 -6.994,26.026 0,12.688 3.429,22.787 10.288,30.297 6.86,7.51 14.897,11.265 24.116,11.265 7.699,0 14.382,-3.159 20.048,-9.475 5.666,-6.318 8.716,-15.685 9.151,-28.101" /></g><g
         transform="translate(1811.5742,3472.0352)"
         id="g1448"
         style="fill:#6d248c;fill-opacity:1"><path
           inkscape:connector-curvature="0"
           id="path1450"
           style="fill:#6d248c;fill-opacity:1;fill-rule:nonzero;stroke:none"
           d="m 0,0 2.521,-1.952 c -3.579,-6.724 -8.04,-11.726 -13.379,-15.006 -5.342,-3.28 -11.021,-4.921 -17.039,-4.921 -10.141,0 -18.248,3.823 -24.32,11.468 -6.073,7.645 -9.109,16.836 -9.109,27.572 0,10.356 2.765,19.465 8.296,27.328 6.67,9.489 15.86,14.234 27.572,14.234 7.861,0 14.111,-1.98 18.748,-5.938 4.636,-3.958 6.953,-8.377 6.953,-13.257 0,-3.09 -0.934,-5.559 -2.806,-7.402 -1.87,-1.843 -4.324,-2.765 -7.36,-2.765 -3.2,0 -5.844,1.057 -7.931,3.172 -2.087,2.115 -3.375,5.883 -3.863,11.306 -0.325,3.416 -1.111,5.801 -2.358,7.157 -1.248,1.355 -2.712,2.033 -4.392,2.033 -2.602,0 -4.827,-1.383 -6.67,-4.148 -2.819,-4.175 -4.229,-10.573 -4.229,-19.194 0,-7.158 1.138,-14.004 3.416,-20.537 2.277,-6.535 5.395,-11.401 9.353,-14.6 2.982,-2.332 6.507,-3.497 10.574,-3.497 2.656,0 5.177,0.623 7.564,1.871 C -6.073,-5.83 -3.254,-3.471 0,0" /></g><g
         transform="translate(1853.623,3556.2964)"
         id="g1452"
         style="fill:#6d248c;fill-opacity:1"><path
           inkscape:connector-curvature="0"
           id="path1454"
           style="fill:#6d248c;fill-opacity:1;fill-rule:nonzero;stroke:none"
           d="m 0,0 v -27.816 h 18.056 v -8.052 H 0 v -46.929 c 0,-4.392 0.203,-7.226 0.609,-8.5 0.408,-1.274 1.125,-2.305 2.156,-3.09 1.029,-0.787 1.979,-1.18 2.846,-1.18 3.525,0 6.86,2.684 10.005,8.052 l 2.44,-1.789 C 13.664,-99.715 6.533,-104.92 -3.335,-104.92 c -4.827,0 -8.906,1.342 -12.241,4.026 -3.334,2.684 -5.463,5.679 -6.384,8.987 -0.543,1.843 -0.813,6.832 -0.813,14.966 v 41.073 h -9.923 v 2.847 c 6.832,4.825 12.647,9.895 17.446,15.209 4.798,5.313 8.987,11.251 12.565,17.812 z" /></g><g
         transform="translate(1897.2178,3565.3247)"
         id="g1456"
         style="fill:#6d248c;fill-opacity:1"><path
           inkscape:connector-curvature="0"
           id="path1458"
           style="fill:#6d248c;fill-opacity:1;fill-rule:nonzero;stroke:none"
           d="m 0,0 c 3.524,0 6.507,-1.234 8.946,-3.701 2.441,-2.468 3.66,-5.436 3.66,-8.906 0,-3.471 -1.233,-6.425 -3.7,-8.865 -2.468,-2.44 -5.436,-3.66 -8.906,-3.66 -3.471,0 -6.426,1.22 -8.865,3.66 -2.441,2.44 -3.66,5.394 -3.66,8.865 0,3.47 1.219,6.438 3.66,8.906 C -6.426,-1.234 -3.471,0 0,0 m 11.387,-36.844 v -60.268 c 0,-5.368 0.623,-8.799 1.871,-10.289 1.246,-1.492 3.686,-2.346 7.319,-2.562 v -2.928 h -41.073 v 2.928 c 3.361,0.108 5.856,1.084 7.482,2.928 1.084,1.246 1.627,4.555 1.627,9.923 v 44.408 c 0,5.368 -0.624,8.796 -1.871,10.288 -1.247,1.491 -3.659,2.345 -7.238,2.562 v 3.01 z" /></g><g
         transform="translate(1961.3896,3524.9834)"
         id="g1460"
         style="fill:#6d248c;fill-opacity:1"><path
           inkscape:connector-curvature="0"
           id="path1462"
           style="fill:#6d248c;fill-opacity:1;fill-rule:nonzero;stroke:none"
           d="m 0,0 c -2.766,0 -5.139,-1.045 -7.117,-3.131 -1.98,-2.089 -3.281,-6.21 -3.904,-12.363 -0.624,-6.155 -0.935,-14.709 -0.935,-25.661 0,-5.803 0.379,-11.224 1.139,-16.267 0.595,-3.85 1.87,-6.778 3.822,-8.784 1.952,-2.006 4.175,-3.009 6.67,-3.009 2.439,0 4.472,0.677 6.099,2.033 2.116,1.843 3.525,4.419 4.23,7.727 1.084,5.151 1.627,15.561 1.627,31.232 0,9.218 -0.517,15.547 -1.546,18.992 C 9.055,-5.789 7.536,-3.282 5.53,-1.708 4.12,-0.569 2.277,0 0,0 m -0.325,5.774 c 6.614,0 12.769,-1.708 18.462,-5.124 5.693,-3.416 10.017,-8.269 12.973,-14.558 2.954,-6.291 4.433,-13.176 4.433,-20.659 0,-10.791 -2.739,-19.819 -8.215,-27.084 -6.616,-8.784 -15.752,-13.176 -27.409,-13.176 -11.441,0 -20.253,4.012 -26.434,12.037 -6.181,8.024 -9.272,17.324 -9.272,27.897 0,10.899 3.158,20.401 9.475,28.508 6.317,8.106 14.978,12.159 25.987,12.159" /></g><g
         transform="translate(2039.5518,3528.4805)"
         id="g1464"
         style="fill:#6d248c;fill-opacity:1"><path
           inkscape:connector-curvature="0"
           id="path1466"
           style="fill:#6d248c;fill-opacity:1;fill-rule:nonzero;stroke:none"
           d="m 0,0 v -9.841 c 3.904,4.229 7.646,7.306 11.224,9.231 3.579,1.924 7.428,2.887 11.549,2.887 4.934,0 9.028,-1.37 12.282,-4.107 3.253,-2.739 5.421,-6.141 6.507,-10.207 0.866,-3.091 1.3,-9.028 1.3,-17.813 v -29.605 c 0,-5.856 0.53,-9.503 1.586,-10.939 1.058,-1.438 3.267,-2.346 6.629,-2.725 v -2.928 H 12.606 v 2.928 c 2.873,0.379 4.934,1.572 6.182,3.579 0.866,1.354 1.301,4.717 1.301,10.085 v 33.835 c 0,6.235 -0.244,10.167 -0.732,11.793 -0.488,1.627 -1.315,2.888 -2.48,3.783 -1.167,0.894 -2.454,1.341 -3.863,1.341 C 8.35,-8.703 4.012,-12.037 0,-18.707 v -40.748 c 0,-5.693 0.528,-9.3 1.586,-10.817 1.058,-1.519 3.021,-2.468 5.896,-2.847 v -2.928 h -38.47 v 2.928 c 3.198,0.326 5.475,1.355 6.832,3.091 0.921,1.192 1.383,4.717 1.383,10.573 v 42.944 c 0,5.747 -0.53,9.326 -1.586,10.737 -1.058,1.409 -3.268,2.33 -6.629,2.765 V 0 Z" /></g></g></g></svg>